<svg width="512" height="512" viewBox="0 0 512 512" fill="none" xmlns="http://www.w3.org/2000/svg">
<mask id="mask0_108_933" style="mask-type:alpha" maskUnits="userSpaceOnUse" x="0" y="0" width="512" height="512">
<rect width="512" height="512" fill="#D9D9D9"/>
</mask>
<g mask="url(#mask0_108_933)">
<path d="M56.2328 211.869V247.265H19.1644V211.869H0V300.992H19.1644V263.687H56.2328V300.992H75.3972V211.869H56.2328ZM197.728 284.431V211.869H178.543V284.688C178.543 295.257 184.31 300.992 194.909 300.992H238.498V284.431H197.728ZM238.488 211.869V228.291H264.927V300.992H284.092V228.291H310.551V211.869H238.488ZM348.036 279.21C346.617 284.688 341.892 287.486 334.747 287.486C325.805 287.486 320.048 281.88 318.778 272.843H365.027C365.166 271.449 365.295 269.54 365.295 267.118C365.295 252.475 356.224 235.805 333.476 235.805C311.612 235.805 301.658 252.475 301.658 268.779C301.658 284.935 312.913 302 334.757 302C350.606 302 362.863 293.092 365.424 279.21H348.036ZM333.456 248.787C342.011 248.787 346.994 254.512 347.51 261.66H319.006C320.555 252.722 325.408 248.787 333.456 248.787ZM422.421 277.055C421.14 282.779 415.91 286.724 409.399 286.724C399.693 286.724 393.947 279.339 393.947 268.908C393.947 258.477 399.554 250.962 409.151 250.962C415.662 250.962 421.15 255.155 422.172 260.879H440.057C438.905 245.989 425.487 235.805 408.625 235.805C388.677 235.805 375.408 250.181 375.408 268.898C375.408 287.604 388.687 301.99 408.625 301.99C425.358 301.99 438.657 291.292 440.573 277.045H422.421V277.055ZM488.102 235.805C479.159 235.805 472.133 239.503 468.421 245.722V211.869H450.656V300.992H468.421V265.843C468.421 257.567 473.919 251.595 481.71 251.595C489.124 251.595 494.235 257.201 494.235 264.963V300.992H512V261.018C512 246.236 502.542 235.805 488.102 235.805ZM87.4357 255.491C87.4357 225.503 106.888 210 129.079 210C149.961 210 165.264 222.705 167.517 241.896H148.889C147.698 232.622 139.52 226.393 129.079 226.393C115.671 226.393 105.35 236.428 105.35 255.491C105.35 274.553 115.671 284.47 129.079 284.47C139.758 284.47 147.946 278.241 149.365 269.096H167.16C165.622 288.158 150.318 300.992 129.079 300.992C106.531 300.982 87.4357 285.479 87.4357 255.491Z" fill="#315EA8"/>
</g>
</svg>
