<svg width="1028" height="512" viewBox="0 0 1028 512" fill="none" xmlns="http://www.w3.org/2000/svg">
<mask id="mask0_108_937" style="mask-type:alpha" maskUnits="userSpaceOnUse" x="4" y="0" width="1024" height="512">
<rect x="4" width="1024" height="512" fill="#D9D9D9"/>
</mask>
<g mask="url(#mask0_108_937)">
</g>
<path d="M289.727 315.117V233.777H311.281V264.06H335.592V233.777H357.147V315.117H335.592V282.832H311.281V315.117H289.727ZM392.44 316.619C385.589 316.619 380.618 314.325 377.527 309.736C374.436 305.064 372.891 298.849 372.891 291.09V252.548H394.445V288.338C394.445 292.342 394.947 295.011 395.949 296.346C397.035 297.681 398.622 298.348 400.711 298.348C402.715 298.348 404.387 297.931 405.724 297.097C407.061 296.263 408.397 294.844 409.734 292.842V252.548H431.288V315.117H413.743L412.24 306.859H411.738C409.233 309.861 406.434 312.239 403.342 313.991C400.335 315.743 396.701 316.619 392.44 316.619ZM468.647 340.896C463.886 340.896 459.499 340.354 455.489 339.269C451.48 338.268 448.263 336.641 445.84 334.388C443.5 332.137 442.332 329.132 442.332 325.378C442.332 320.457 445.255 316.452 451.103 313.365V312.864C449.501 311.681 448.104 310.244 446.968 308.61C445.882 306.859 445.339 304.688 445.339 302.103C445.339 299.934 445.966 297.806 447.218 295.721C448.555 293.635 450.268 291.842 452.356 290.34V289.839C450.1 288.338 448.096 286.21 446.342 283.457C444.67 280.62 443.835 277.408 443.835 273.822C443.835 268.649 445.088 264.395 447.595 261.057C450.184 257.636 453.526 255.134 457.619 253.549C461.714 251.881 466.058 251.046 470.652 251.046C474.328 251.046 477.67 251.547 480.677 252.548H503.987V268.065H494.964C495.214 268.816 495.423 269.776 495.59 270.943C495.841 272.111 495.966 273.321 495.966 274.572C495.966 279.494 494.839 283.499 492.583 286.586C490.327 289.589 487.278 291.8 483.435 293.218C479.591 294.637 475.331 295.345 470.652 295.345C468.564 295.345 466.224 295.054 463.635 294.469C462.632 295.387 462.131 296.596 462.131 298.098C462.131 299.433 462.8 300.392 464.136 300.977C465.556 301.56 467.812 301.852 470.903 301.852H480.302C488.155 301.852 494.212 303.146 498.473 305.732C502.817 308.235 504.989 312.364 504.989 318.12C504.989 322.626 503.485 326.588 500.478 330.009C497.554 333.429 493.376 336.099 487.945 338.017C482.515 339.937 476.082 340.896 468.647 340.896ZM470.652 282.581C472.658 282.581 474.287 281.872 475.539 280.454C476.793 279.036 477.419 276.825 477.419 273.822C477.419 270.901 476.793 268.774 475.539 267.439C474.287 266.021 472.658 265.313 470.652 265.313C468.647 265.313 467.018 266.021 465.765 267.439C464.511 268.774 463.886 270.901 463.886 273.822C463.886 276.825 464.511 279.036 465.765 280.454C467.018 281.872 468.647 282.581 470.652 282.581ZM472.156 327.631C475.665 327.631 478.589 327.089 480.928 326.004C483.268 325.003 484.437 323.626 484.437 321.874C484.437 320.206 483.685 319.163 482.182 318.746C480.761 318.329 478.714 318.12 476.041 318.12H471.154C468.647 318.12 466.726 318.037 465.389 317.87C464.136 317.787 463.05 317.62 462.131 317.37C460.628 318.871 459.875 320.373 459.875 321.874C459.875 323.877 461.003 325.337 463.259 326.255C465.599 327.173 468.564 327.631 472.156 327.631ZM537.057 340.896C532.295 340.896 527.909 340.354 523.899 339.269C519.889 338.268 516.672 336.641 514.249 334.388C511.91 332.137 510.74 329.132 510.74 325.378C510.74 320.457 513.665 316.452 519.512 313.365V312.864C517.911 311.682 516.514 310.245 515.378 308.61C514.291 306.859 513.748 304.688 513.748 302.103C513.748 299.934 514.375 297.806 515.627 295.721C516.964 293.635 518.677 291.842 520.766 290.34V289.839C518.51 288.338 516.505 286.21 514.751 283.457C513.079 280.62 512.244 277.408 512.244 273.822C512.244 268.649 513.498 264.395 516.004 261.057C518.593 257.636 521.935 255.134 526.029 253.549C530.123 251.881 534.467 251.046 539.061 251.046C542.738 251.046 546.08 251.547 549.087 252.548H572.396V268.065H563.373C563.624 268.816 563.832 269.776 564 270.943C564.25 272.111 564.375 273.321 564.375 274.572C564.375 279.494 563.248 283.499 560.992 286.586C558.737 289.589 555.687 291.8 551.844 293.218C548.001 294.637 543.74 295.345 539.061 295.345C536.973 295.345 534.635 295.054 532.044 294.469C531.042 295.387 530.54 296.596 530.54 298.098C530.54 299.433 531.209 300.392 532.545 300.977C533.966 301.56 536.221 301.852 539.312 301.852H548.711C556.564 301.852 562.621 303.146 566.882 305.732C571.226 308.235 573.398 312.364 573.398 318.12C573.398 322.626 571.894 326.588 568.887 330.009C565.963 333.429 561.785 336.099 556.355 338.017C550.926 339.937 544.492 340.896 537.057 340.896ZM539.061 282.581C541.066 282.581 542.695 281.872 543.949 280.454C545.202 279.036 545.829 276.825 545.829 273.822C545.829 270.901 545.202 268.774 543.949 267.439C542.695 266.021 541.066 265.313 539.061 265.313C537.057 265.313 535.427 266.021 534.174 267.439C532.922 268.774 532.295 270.901 532.295 273.822C532.295 276.825 532.922 279.036 534.174 280.454C535.427 281.872 537.057 282.581 539.061 282.581ZM540.566 327.631C544.075 327.631 546.998 327.089 549.338 326.004C551.677 325.003 552.847 323.626 552.847 321.874C552.847 320.206 552.094 319.163 550.591 318.746C549.171 318.329 547.123 318.12 544.45 318.12H539.563C537.057 318.12 535.135 318.037 533.798 317.87C532.545 317.787 531.459 317.62 530.54 317.37C529.037 318.871 528.284 320.373 528.284 321.874C528.284 323.877 529.413 325.337 531.669 326.255C534.008 327.173 536.973 327.631 540.566 327.631ZM582.659 315.117V252.548H604.213V315.117H582.659ZM593.436 244.789C589.928 244.789 587.086 243.83 584.914 241.912C582.742 239.909 581.656 237.281 581.656 234.027C581.656 230.774 582.742 228.187 584.914 226.269C587.086 224.266 589.928 223.266 593.436 223.266C596.945 223.266 599.786 224.266 601.957 226.269C604.129 228.187 605.215 230.774 605.215 234.027C605.215 237.281 604.129 239.909 601.957 241.912C599.786 243.83 596.945 244.789 593.436 244.789ZM618.761 315.117V252.548H636.305L637.808 260.056H638.31C640.815 257.636 643.657 255.551 646.831 253.799C650.089 251.964 653.848 251.046 658.109 251.046C665.043 251.046 670.014 253.382 673.022 258.054C676.113 262.643 677.658 268.816 677.658 276.574V315.117H656.104V279.328C656.104 275.323 655.603 272.653 654.601 271.318C653.597 269.983 652.011 269.316 649.838 269.316C647.834 269.316 646.162 269.733 644.826 270.568C643.489 271.402 641.985 272.571 640.315 274.072V315.117H618.761ZM714.505 340.896C709.744 340.896 705.357 340.354 701.347 339.269C697.338 338.268 694.121 336.641 691.698 334.388C689.358 332.137 688.189 329.132 688.189 325.378C688.189 320.457 691.113 316.452 696.961 313.365V312.864C695.359 311.681 693.962 310.244 692.826 308.61C691.74 306.859 691.197 304.688 691.197 302.103C691.197 299.934 691.824 297.806 693.076 295.721C694.413 293.635 696.126 291.842 698.214 290.34V289.839C695.958 288.338 693.953 286.21 692.199 283.457C690.528 280.62 689.693 277.408 689.693 273.822C689.693 268.649 690.946 264.395 693.453 261.057C696.042 257.636 699.384 255.134 703.477 253.549C707.572 251.881 711.916 251.046 716.51 251.046C720.186 251.046 723.528 251.547 726.535 252.548H749.843V268.065H740.821C741.072 268.816 741.281 269.776 741.448 270.943C741.699 272.111 741.824 273.321 741.824 274.572C741.824 279.494 740.697 283.499 738.441 286.586C736.185 289.589 733.135 291.8 729.292 293.218C725.449 294.637 721.189 295.345 716.51 295.345C714.421 295.345 712.082 295.054 709.493 294.469C708.49 295.387 707.989 296.596 707.989 298.098C707.989 299.433 708.658 300.392 709.994 300.977C711.414 301.56 713.67 301.852 716.761 301.852H726.16C734.013 301.852 740.07 303.146 744.331 305.732C748.675 308.235 750.847 312.364 750.847 318.12C750.847 322.626 749.343 326.588 746.335 330.009C743.412 333.429 739.234 336.099 733.803 338.017C728.373 339.937 721.94 340.896 714.505 340.896ZM716.51 282.581C718.515 282.581 720.144 281.872 721.397 280.454C722.651 279.036 723.277 276.825 723.277 273.822C723.277 270.901 722.651 268.774 721.397 267.439C720.144 266.021 718.515 265.313 716.51 265.313C714.505 265.313 712.876 266.021 711.623 267.439C710.369 268.774 709.744 270.901 709.744 273.822C709.744 276.825 710.369 279.036 711.623 280.454C712.876 281.872 714.505 282.581 716.51 282.581ZM718.014 327.631C721.523 327.631 724.447 327.089 726.786 326.004C729.126 325.003 730.294 323.626 730.294 321.874C730.294 320.206 729.543 319.163 728.04 318.746C726.619 318.329 724.572 318.12 721.899 318.12H717.012C714.505 318.12 712.584 318.037 711.247 317.87C709.994 317.787 708.907 317.62 707.989 317.37C706.484 318.871 705.733 320.373 705.733 321.874C705.733 323.877 706.861 325.337 709.117 326.255C711.455 327.173 714.421 327.631 718.014 327.631ZM786.949 315.117V233.777H840.082V251.797H808.503V267.314H835.571V285.334H808.503V315.117H786.949ZM863.653 316.619C859.727 316.619 856.344 315.743 853.503 313.991C850.791 312.205 848.589 309.748 847.113 306.859C845.608 303.938 844.857 300.768 844.857 297.348C844.857 290.84 847.53 285.752 852.876 282.08C858.223 278.326 866.912 275.824 878.942 274.572C878.441 270.234 875.516 268.065 870.17 268.065C867.914 268.065 865.533 268.523 863.027 269.441C860.521 270.275 857.639 271.569 854.38 273.321L846.862 259.305C851.29 256.636 855.759 254.592 860.27 253.173C864.856 251.757 869.63 251.04 874.43 251.046C882.618 251.046 889.01 253.382 893.604 258.054C898.199 262.643 900.496 270.067 900.496 280.328V315.117H882.953L881.449 309.11H880.947C878.441 311.363 875.767 313.199 872.927 314.616C870.17 315.951 867.079 316.619 863.653 316.619ZM871.172 300.1C872.927 300.1 874.389 299.725 875.559 298.974C876.728 298.14 877.856 297.097 878.942 295.846V287.336C873.846 288.087 870.296 289.213 868.291 290.715C866.369 292.217 865.408 293.844 865.408 295.596C865.408 298.599 867.33 300.1 871.172 300.1ZM942.87 316.619C936.938 316.619 931.591 315.325 926.83 312.739C922.067 310.153 918.266 306.44 915.426 301.602C912.668 296.68 911.29 290.757 911.29 283.832C911.29 276.908 912.836 271.027 915.927 266.188C919.101 261.265 923.237 257.512 928.333 254.925C933.429 252.339 938.943 251.046 944.874 251.046C948.634 251.046 952.018 251.63 955.025 252.798C958.116 253.966 960.831 255.551 963.17 257.554L953.146 271.318C951.809 270.151 950.597 269.359 949.511 268.942C948.432 268.525 947.285 268.313 946.128 268.315C942.118 268.315 938.985 269.733 936.729 272.571C934.473 275.323 933.346 279.077 933.346 283.832C933.346 288.588 934.516 292.384 936.855 295.22C939.193 297.973 942.034 299.35 945.376 299.35C947.13 299.35 948.843 298.974 950.513 298.223C952.227 297.413 953.863 296.45 955.401 295.345L963.672 309.361C960.581 312.114 957.156 314.033 953.396 315.117C949.637 316.118 946.128 316.619 942.87 316.619ZM998.937 316.619C992.837 316.619 987.323 315.325 982.395 312.739C977.549 310.153 973.706 306.44 970.866 301.602C968.025 296.68 966.606 290.757 966.606 283.832C966.606 277.075 968.025 271.277 970.866 266.438C973.79 261.516 977.55 257.72 982.144 255.05C986.739 252.381 991.585 251.046 996.681 251.046C1002.86 251.046 1007.96 252.423 1011.97 255.176C1016.06 257.845 1019.07 261.474 1020.99 266.063C1023 270.651 1024 275.74 1024 281.33C1024 283.165 1023.87 284.959 1023.62 286.711C1023.46 288.379 1023.29 289.589 1023.12 290.34H987.407C988.409 294.094 990.206 296.722 992.796 298.223C995.385 299.642 998.435 300.351 1001.94 300.351C1005.95 300.351 1010.21 299.1 1014.73 296.596L1021.74 309.361C1018.4 311.696 1014.64 313.491 1010.47 314.742C1006.29 315.993 1002.45 316.619 998.937 316.619ZM987.157 276.324H1005.7C1005.7 273.904 1005.08 271.819 1003.82 270.067C1002.65 268.232 1000.44 267.314 997.182 267.314C994.842 267.314 992.754 268.024 990.916 269.441C989.078 270.86 987.825 273.154 987.157 276.324Z" fill="#000B1B"/>
<path d="M243.397 327.041C242.761 324.647 241.732 322.375 240.352 320.317C240.647 319.233 240.872 318.132 241.024 317.02C242.003 309.96 239.553 303.497 234.933 298.496C232.431 295.764 229.75 293.962 226.909 292.855C228.774 284.889 229.718 276.736 229.722 268.556C229.722 264.821 229.511 261.161 229.156 257.556C228.97 255.755 228.746 253.959 228.485 252.168C227.671 246.884 226.464 241.667 224.874 236.562C223.832 233.208 222.627 229.907 221.263 226.67C219.217 221.876 216.829 217.236 214.116 212.785C212.336 209.824 210.398 206.96 208.31 204.207C207.287 202.817 206.221 201.459 205.111 200.136C201.826 196.147 198.254 192.402 194.425 188.929C193.155 187.761 191.847 186.634 190.505 185.549C189.183 184.448 187.833 183.383 186.454 182.354C183.68 180.292 180.813 178.358 177.862 176.557C161.56 166.669 142.441 161 122.007 161C62.5146 161 14.2935 209.153 14.2935 268.561C14.2923 276.844 15.2529 285.099 17.1575 293.161C14.6022 294.269 12.1534 295.995 9.88209 298.493C5.26368 303.491 2.81252 309.932 3.79322 316.99C3.9411 318.113 4.16586 319.223 4.46398 320.315C3.08429 322.374 2.05538 324.647 1.41896 327.041C-0.000635112 332.429 0.466644 337.288 2.27071 341.544C0.310489 347.11 0.800249 353.035 3.35433 358.187C5.21163 361.949 7.86982 364.859 11.1455 367.461C15.0411 370.553 19.9174 373.181 25.8004 375.701C32.818 378.69 41.3828 381.498 45.2784 382.528C55.341 385.131 64.9895 386.78 74.7693 386.859C88.7002 386.989 100.698 383.716 109.289 375.344C113.509 375.861 117.756 376.119 122.007 376.118C126.499 376.108 130.986 375.826 135.444 375.272C144.013 383.698 156.057 386.999 170.04 386.866C179.818 386.789 189.466 385.14 199.503 382.534C203.424 381.504 211.987 378.696 219.008 375.708C224.891 373.183 229.766 370.555 233.689 367.467C236.94 364.866 239.596 361.955 241.454 358.193C244.034 353.041 244.499 347.115 242.564 341.55C244.351 337.294 244.815 332.425 243.397 327.041ZM233.413 341.184C235.39 344.93 235.517 349.163 233.772 353.105C231.127 359.08 224.556 363.785 211.795 368.838C203.861 371.981 196.594 373.989 196.53 374.008C186.034 376.727 176.542 378.106 168.325 378.106C154.718 378.106 144.594 374.358 138.173 366.953C127.314 368.8 116.226 368.863 105.347 367.139C98.9189 374.421 88.8504 378.106 75.3584 378.106C67.1401 378.106 57.649 376.727 47.1535 374.008C47.0884 373.989 39.826 371.981 31.8881 368.838C19.1272 363.785 12.5556 359.082 9.91166 353.105C8.16675 349.163 8.29333 344.93 10.2701 341.184C10.4535 340.837 10.6487 340.496 10.8581 340.169C9.67335 338.392 8.87871 336.385 8.52638 334.279C8.17406 332.173 8.27203 330.017 8.81385 327.952C9.59935 324.973 11.2224 322.494 13.4252 320.714C12.3645 318.973 11.6683 317.035 11.3786 315.018C10.7445 310.63 12.2019 306.249 15.4836 302.678C18.0388 299.898 21.6493 298.368 25.649 298.368H25.7555C22.7404 288.718 21.2115 278.666 21.2211 268.557C21.2211 213.423 65.982 168.724 121.201 168.724C176.42 168.724 221.18 213.419 221.18 268.557C221.187 278.693 219.648 288.771 216.615 298.444C217.098 298.396 217.571 298.372 218.034 298.372C222.033 298.372 225.646 299.9 228.2 302.68C231.479 306.249 232.94 310.634 232.305 315.02C232.015 317.038 231.319 318.976 230.258 320.718C232.461 322.497 234.084 324.975 234.87 327.956C235.41 330.021 235.508 332.177 235.156 334.282C234.803 336.388 234.009 338.395 232.825 340.173C233.035 340.496 233.232 340.837 233.413 341.184Z" fill="white"/>
<path d="M232.825 340.175C234.009 338.397 234.803 336.39 235.155 334.284C235.508 332.179 235.41 330.023 234.869 327.957C234.084 324.978 232.461 322.5 230.258 320.719C231.318 318.978 232.015 317.04 232.305 315.023C232.939 310.636 231.481 306.254 228.2 302.683C225.646 299.903 222.033 298.373 218.034 298.373C217.569 298.373 217.097 298.397 216.615 298.446C219.644 288.773 221.181 278.695 221.172 268.56C221.172 213.427 176.411 168.727 121.197 168.727C65.9829 168.727 21.2173 213.422 21.2173 268.56C21.2077 278.669 22.7366 288.721 25.7517 298.371H25.6452C21.6467 298.371 18.035 299.901 15.4809 302.681C12.2017 306.249 10.7419 310.633 11.376 315.021C11.6654 317.038 12.3616 318.976 13.4225 320.717C11.2198 322.497 9.59675 324.976 8.81242 327.956C8.27085 330.022 8.17321 332.178 8.52595 334.284C8.87868 336.39 9.67379 338.398 10.859 340.175C10.6472 340.502 10.4532 340.842 10.271 341.189C8.29545 344.935 8.16769 349.168 9.9126 353.11C12.5566 359.084 19.1281 363.792 31.8891 368.843C39.8234 371.987 47.0905 373.995 47.1544 374.014C57.6499 376.732 67.1411 378.113 75.3581 378.113C88.8514 378.113 98.9186 374.427 105.348 367.144C116.227 368.868 127.315 368.805 138.174 366.959C144.594 374.363 154.719 378.113 168.326 378.113C176.543 378.113 186.035 376.732 196.531 374.014C196.595 373.995 203.858 371.987 211.796 368.843C224.557 363.792 231.129 359.084 233.773 353.11C235.518 349.168 235.391 344.935 233.414 341.189C233.234 340.842 233.038 340.503 232.825 340.175ZM100.748 355.745C100.194 356.712 99.6011 357.656 98.9695 358.574C97.3074 361.004 95.1212 362.86 92.5849 364.241C87.7334 366.881 81.5949 367.805 75.357 367.805C65.505 367.805 55.4046 365.502 49.7428 364.035C49.4648 363.963 15.0409 354.254 19.399 345.989C20.1325 344.6 21.3403 344.045 22.8593 344.045C28.9955 344.045 40.1688 353.169 44.9718 353.169C46.0436 353.169 46.8007 352.712 47.1095 351.6C49.156 344.27 16.005 341.189 18.7969 330.576C19.2902 328.698 20.6258 327.936 22.5056 327.936C30.6173 327.935 48.826 342.182 52.634 342.182C52.9262 342.182 53.1356 342.097 53.2492 341.917L53.2989 341.836C55.0852 338.888 54.0607 336.745 41.8144 329.256L40.6385 328.541C27.1642 320.396 17.705 315.496 23.0852 309.648C23.7039 308.972 24.5805 308.673 25.6464 308.673C26.911 308.673 28.4406 309.096 30.1252 309.804C37.2421 312.801 47.1059 320.975 51.2263 324.54C52.4412 325.596 53.1569 326.241 53.1569 326.241C53.1569 326.241 58.3739 331.658 61.529 331.658C62.2553 331.658 62.8705 331.374 63.2881 330.666C65.5263 326.9 42.5112 309.485 41.2134 302.3C40.3345 297.431 41.8309 294.965 44.6003 294.965C45.9158 294.965 47.5223 295.524 49.2956 296.648C54.7965 300.135 65.4175 318.36 69.306 325.449C70.6096 327.826 72.8348 328.83 74.84 328.83C78.8184 328.83 81.9285 324.881 75.2044 319.863C65.098 312.311 68.6447 299.968 73.4677 299.209C73.6736 299.177 73.8818 299.16 74.0888 299.159C78.4753 299.159 80.4107 306.708 80.4107 306.708C80.4107 306.708 86.0808 320.929 95.8228 330.648C104.663 339.472 105.897 346.713 100.748 355.745ZM132.249 357.41L131.744 357.47L130.882 357.57C130.429 357.616 129.976 357.661 129.52 357.703L129.075 357.743L128.671 357.778L128.095 357.824C127.883 357.839 127.671 357.856 127.46 357.869L126.825 357.911L126.686 357.919L126.187 357.949L125.975 357.96L125.383 357.989L124.696 358.017L124.071 358.039L123.655 358.05H123.444C123.314 358.05 123.185 358.058 123.055 358.059H122.848C122.718 358.059 122.589 358.059 122.459 358.066L121.93 358.072H121.19C120.609 358.072 120.03 358.066 119.452 358.055L118.983 358.045C118.851 358.045 118.717 358.037 118.585 358.034L118.089 358.019L117.472 357.995L116.917 357.971L116.772 357.965L116.244 357.937C116.097 357.929 115.95 357.922 115.805 357.912L115.463 357.892C115.033 357.865 114.604 357.834 114.175 357.801L113.725 357.766L113.157 357.717L112.493 357.656C112.123 357.622 111.753 357.584 111.383 357.543H111.365C116.771 345.499 114.037 334.252 103.112 323.35C95.9482 316.206 91.1807 305.653 90.1929 303.336C88.1913 296.479 82.8926 288.856 74.0947 288.856C73.3511 288.857 72.6087 288.916 71.8742 289.032C68.0189 289.636 64.6497 291.853 62.2459 295.186C59.6492 291.96 57.1235 289.395 54.8403 287.946C51.3978 285.768 47.9636 284.662 44.6157 284.662C40.4397 284.662 36.705 286.375 34.1024 289.482L34.0374 289.561L33.8907 288.945L33.8848 288.919C33.3899 286.804 32.974 284.672 32.6379 282.526C32.6379 282.511 32.6379 282.496 32.6308 282.482L32.5575 281.997C32.5178 281.734 32.4792 281.472 32.4415 281.209C32.4108 280.99 32.38 280.772 32.3516 280.554C32.3232 280.337 32.2925 280.118 32.2664 279.9C32.238 279.68 32.212 279.462 32.186 279.243C32.1611 279.035 32.137 278.827 32.1138 278.619L32.1067 278.566C32.0001 277.607 31.9086 276.647 31.8323 275.685L31.7909 275.129C31.779 274.975 31.7683 274.821 31.7589 274.668C31.7589 274.632 31.7542 274.596 31.7518 274.563L31.7128 273.946C31.6986 273.723 31.688 273.499 31.6761 273.276C31.6643 273.054 31.6525 272.831 31.643 272.606L31.6193 272.022L31.6122 271.844L31.5945 271.303L31.5827 270.845C31.5827 270.662 31.5732 270.478 31.5697 270.295L31.5602 269.717C31.5578 269.524 31.5602 269.333 31.5555 269.14C31.5495 268.947 31.5555 268.754 31.5555 268.56C31.5555 219.12 71.6956 179.036 121.211 179.036C170.726 179.036 210.865 219.117 210.865 268.56V269.717C210.865 269.909 210.861 270.103 210.856 270.295C210.856 270.455 210.85 270.612 210.845 270.773C210.845 270.916 210.839 271.058 210.833 271.196C210.833 271.377 210.823 271.556 210.817 271.737V271.752L210.768 272.929L210.761 273.059L210.73 273.645L210.702 274.109C210.636 275.21 210.55 276.309 210.444 277.406V277.421C210.425 277.627 210.404 277.834 210.381 278.039L210.223 279.475L210.163 279.955L210.088 280.52C210.062 280.727 210.034 280.932 210.004 281.138C209.972 281.368 209.938 281.597 209.905 281.827L209.822 282.368L209.725 282.982C209.692 283.186 209.659 283.39 209.62 283.594C209.579 283.797 209.549 284 209.513 284.205C209.442 284.611 209.369 285.016 209.29 285.421C209.133 286.228 208.967 287.033 208.794 287.836C208.75 288.036 208.705 288.236 208.659 288.436C206.136 285.987 202.795 284.654 199.109 284.654C195.764 284.654 192.327 285.758 188.885 287.938C186.601 289.386 184.078 291.952 181.479 295.178C179.071 291.843 175.702 289.628 171.851 289.022C171.116 288.907 170.374 288.849 169.63 288.847C160.829 288.847 155.534 296.47 153.532 303.328C152.539 305.645 147.772 316.196 140.599 323.353C129.682 334.218 126.927 345.416 132.249 357.41ZM224.807 333.302L224.771 333.407C224.747 333.474 224.721 333.541 224.694 333.608C224.55 333.947 224.375 334.274 224.172 334.582C223.974 334.876 223.758 335.158 223.522 335.422C223.468 335.484 223.416 335.544 223.354 335.604C223.271 335.695 223.183 335.784 223.095 335.872C221.502 337.449 219.074 338.83 216.33 340.099C216.018 340.24 215.704 340.38 215.384 340.521L215.067 340.661C214.856 340.755 214.645 340.848 214.423 340.939C214.206 341.031 213.988 341.122 213.771 341.212L213.111 341.485C211.567 342.119 209.985 342.723 208.441 343.321L207.782 343.576L207.129 343.831C206.696 344 206.268 344.169 205.846 344.338L205.218 344.59L204.601 344.843L204.297 344.97C204.096 345.055 203.897 345.137 203.701 345.222C199.161 347.167 195.896 349.146 196.582 351.602C196.601 351.671 196.622 351.737 196.646 351.801C196.707 351.983 196.791 352.156 196.895 352.316C196.957 352.413 197.028 352.504 197.107 352.587C197.914 353.423 199.382 353.291 201.233 352.627C201.384 352.573 201.537 352.515 201.692 352.453C201.799 352.413 201.904 352.371 202.011 352.328L202.17 352.261C202.594 352.081 203.042 351.882 203.501 351.663C203.616 351.61 203.732 351.558 203.848 351.496C206.111 350.392 208.677 348.902 211.223 347.547C211.613 347.336 212.005 347.134 212.394 346.933C213.03 346.603 213.672 346.286 214.321 345.982C216.732 344.85 218.997 344.047 220.82 344.047C221.674 344.047 222.43 344.222 223.058 344.624L223.164 344.693C223.482 344.918 223.759 345.193 223.985 345.51C224.037 345.584 224.091 345.661 224.137 345.74C224.187 345.821 224.234 345.905 224.279 345.99C225.179 347.696 224.426 349.465 222.663 351.198C220.97 352.861 218.337 354.492 215.343 356.003C215.122 356.115 214.898 356.228 214.673 356.336C205.764 360.705 194.1 363.995 193.937 364.036C190.828 364.841 186.382 365.898 181.374 366.688L180.633 366.803L180.512 366.821C179.376 366.991 178.237 367.141 177.096 367.271L176.99 367.281C174.914 367.518 172.785 367.689 170.652 367.761H170.62C169.853 367.789 169.088 367.802 168.321 367.802H167.439C166.27 367.786 165.102 367.733 163.937 367.644C163.91 367.644 163.882 367.644 163.853 367.638C162.719 367.548 161.589 367.415 160.465 367.239C160.188 367.193 159.892 367.144 159.607 367.095C159.477 367.071 159.348 367.047 159.219 367.021L159.189 367.016C158.778 366.937 158.37 366.852 157.963 366.758C157.728 366.705 157.491 366.652 157.258 366.589L157.118 366.552C157.004 366.524 156.889 366.494 156.775 366.463L156.713 366.446L156.347 366.341L155.951 366.225L155.903 366.211L155.559 366.106C155.429 366.066 155.3 366.023 155.171 365.982C155.065 365.946 154.959 365.91 154.853 365.876L154.62 365.794C154.395 365.716 154.173 365.633 153.95 365.548L153.74 365.467L153.566 365.397C153.23 365.263 152.897 365.122 152.567 364.974L152.347 364.869L152.311 364.853C152.233 364.816 152.156 364.779 152.078 364.746C151.925 364.673 151.774 364.598 151.623 364.521L151.578 364.498L151.361 364.384C150.974 364.183 150.594 363.968 150.223 363.739L150.019 363.615C149.914 363.551 149.818 363.486 149.718 363.421L149.453 363.245C149.356 363.181 149.261 363.116 149.167 363.049L148.997 362.928C148.817 362.799 148.641 362.668 148.467 362.532C148.375 362.462 148.284 362.388 148.193 362.321C147.991 362.159 147.792 361.992 147.598 361.821L147.589 361.814C147.399 361.65 147.213 361.48 147.032 361.306L147.023 361.294C146.928 361.205 146.836 361.115 146.743 361.022C146.652 360.928 146.56 360.836 146.471 360.743C146.382 360.648 146.292 360.553 146.204 360.454C146.119 360.362 146.036 360.269 145.953 360.175L145.925 360.143C145.497 359.647 145.098 359.129 144.728 358.589L144.581 358.373C144.484 358.23 144.388 358.086 144.294 357.942L144.014 357.513C143.782 357.154 143.556 356.792 143.336 356.425C143.26 356.295 143.183 356.166 143.109 356.039C143.068 355.969 143.029 355.898 142.99 355.827C142.951 355.754 142.905 355.68 142.863 355.605L142.797 355.488C142.775 355.449 142.767 355.437 142.756 355.411C142.675 355.271 142.597 355.128 142.521 354.983C142.487 354.92 142.453 354.856 142.416 354.794L142.31 354.59L142.204 354.388L142.001 353.978L141.904 353.776C141.834 353.631 141.768 353.488 141.702 353.345C141.676 353.287 141.648 353.229 141.625 353.172C141.534 352.974 141.447 352.775 141.366 352.573C141.31 352.439 141.259 352.307 141.205 352.175C141.052 351.785 140.909 351.391 140.778 350.993C140.739 350.875 140.7 350.758 140.665 350.64C140.58 350.372 140.503 350.101 140.435 349.828C140.35 349.51 140.276 349.19 140.213 348.867C140.173 348.677 140.138 348.485 140.108 348.293C140.015 347.729 139.953 347.16 139.924 346.589C139.924 346.527 139.918 346.463 139.916 346.4C139.911 346.275 139.907 346.15 139.906 346.025C139.84 340.978 142.398 336.124 147.867 330.665C157.608 320.946 163.279 306.724 163.279 306.724C163.279 306.724 163.432 306.128 163.75 305.27C163.857 304.985 163.968 304.702 164.085 304.422C164.219 304.105 164.362 303.792 164.516 303.485L164.561 303.395C164.758 303.003 164.972 302.622 165.205 302.249C165.259 302.163 165.311 302.077 165.372 301.992C165.545 301.735 165.728 301.485 165.921 301.243C166.07 301.057 166.229 300.878 166.395 300.708C166.961 300.127 167.606 299.652 168.335 299.398L168.428 299.368C168.489 299.348 168.55 299.329 168.612 299.311C168.686 299.293 168.759 299.275 168.832 299.259L168.865 299.254C169.02 299.223 169.175 299.202 169.333 299.191H169.347C169.429 299.191 169.51 299.183 169.594 299.183C169.804 299.184 170.012 299.2 170.219 299.232C171.097 299.371 171.933 299.893 172.652 300.698L172.749 300.812C172.983 301.086 173.196 301.379 173.386 301.686C173.528 301.914 173.661 302.154 173.788 302.405C173.839 302.512 173.887 302.609 173.936 302.712C173.959 302.766 173.983 302.818 174.006 302.872C174.053 302.977 174.097 303.083 174.14 303.194C174.388 303.828 174.579 304.481 174.714 305.147C174.857 305.867 174.94 306.597 174.964 307.33C174.972 307.653 174.972 307.979 174.964 308.31C174.958 308.435 174.952 308.561 174.943 308.688C174.846 310.092 174.539 311.475 174.033 312.789C173.982 312.919 173.926 313.051 173.874 313.184C173.62 313.79 173.325 314.379 172.991 314.946C172.8 315.27 172.594 315.591 172.374 315.91L172.239 316.102C171.718 316.829 171.135 317.512 170.499 318.143C169.872 318.77 169.2 319.351 168.489 319.881C167.776 320.406 167.108 320.99 166.49 321.624C164.712 323.488 164.298 325.132 164.698 326.378C164.745 326.519 164.801 326.657 164.865 326.79C165.012 327.08 165.204 327.345 165.434 327.577L165.496 327.64C165.561 327.702 165.63 327.762 165.7 327.82L165.771 327.878C165.943 328.011 166.126 328.129 166.316 328.231C166.371 328.261 166.421 328.291 166.484 328.319C166.746 328.449 167.019 328.553 167.3 328.632L167.378 328.652L167.484 328.68L167.576 328.703L167.674 328.724L167.772 328.744L167.866 328.76C167.936 328.773 168.007 328.783 168.076 328.793L168.145 328.802L168.267 328.815L168.343 328.822L168.468 328.832H168.54L168.67 328.837H169.081L169.198 328.832L169.333 328.823L169.497 328.808L169.651 328.789C169.685 328.789 169.721 328.78 169.756 328.774C170.411 328.679 171.045 328.476 171.634 328.174C172.131 327.922 172.592 327.604 173.005 327.23L173.172 327.071C173.198 327.045 173.225 327.021 173.25 326.993C173.413 326.83 173.567 326.658 173.71 326.477C173.963 326.158 174.188 325.819 174.383 325.462C176.698 321.259 179.124 317.118 181.66 313.043L182.007 312.487L182.359 311.929C182.535 311.648 182.711 311.369 182.887 311.094L183.066 310.816L183.422 310.262C183.9 309.524 184.379 308.794 184.862 308.071L185.223 307.532C185.947 306.462 186.67 305.42 187.384 304.429L187.741 303.94C188.519 302.868 189.329 301.819 190.17 300.796L190.505 300.397C190.559 300.33 190.61 300.265 190.67 300.2L190.998 299.821C191.053 299.758 191.105 299.697 191.161 299.636L191.478 299.278L191.638 299.106C191.792 298.939 191.948 298.775 192.107 298.612C192.213 298.507 192.311 298.401 192.414 298.303C193.014 297.69 193.675 297.14 194.389 296.664L194.553 296.559L194.72 296.453C194.826 296.386 194.934 296.323 195.044 296.262C197.841 294.678 200.157 294.561 201.489 295.892C202.297 296.698 202.743 298.034 202.719 299.893C202.719 299.975 202.719 300.057 202.712 300.142V300.234C202.712 300.318 202.705 300.404 202.699 300.49C202.699 300.596 202.686 300.702 202.675 300.807C202.665 300.913 202.66 300.994 202.649 301.087C202.649 301.114 202.643 301.141 202.64 301.168C202.632 301.251 202.621 301.335 202.61 301.418C202.61 301.444 202.61 301.469 202.6 301.495C202.588 301.607 202.571 301.719 202.551 301.83C202.538 301.933 202.522 302.036 202.502 302.138C202.493 302.197 202.481 302.255 202.472 302.314C202.441 302.482 202.401 302.649 202.352 302.812C202.261 303.117 202.15 303.416 202.019 303.706C201.962 303.833 201.902 303.958 201.84 304.083C201.712 304.339 201.568 304.601 201.41 304.873C201.33 305.007 201.249 305.145 201.161 305.283L201.029 305.493C200.894 305.705 200.753 305.919 200.606 306.135C200.46 306.351 200.302 306.572 200.133 306.795C199.914 307.093 199.684 307.396 199.44 307.704L199.255 307.936C198.734 308.585 198.199 309.223 197.652 309.85L197.218 310.34L196.997 310.588C196.695 310.925 196.393 311.259 196.087 311.591L195.853 311.844C195.698 312.012 195.536 312.182 195.381 312.351C195.223 312.522 195.062 312.692 194.901 312.862L194.413 313.375L193.92 313.889C193.756 314.06 193.59 314.234 193.423 314.405L192.419 315.439C187.622 320.352 182.567 325.249 180.856 328.301C180.743 328.5 180.64 328.705 180.546 328.914C180.304 329.47 180.202 329.944 180.271 330.328C180.293 330.455 180.338 330.576 180.403 330.686C180.5 330.853 180.617 331.006 180.752 331.143C180.815 331.205 180.88 331.263 180.951 331.315C181.302 331.565 181.728 331.694 182.16 331.681H182.295L182.433 331.671L182.573 331.655L182.688 331.638C182.703 331.637 182.718 331.634 182.734 331.63L182.839 331.61L182.867 331.603L182.983 331.578L183.025 331.568L183.149 331.536L183.297 331.492C183.394 331.462 183.491 331.429 183.59 331.393C183.804 331.317 184.014 331.23 184.218 331.132C184.27 331.107 184.324 331.083 184.374 331.056L184.532 330.978C184.738 330.874 184.942 330.762 185.148 330.64C185.313 330.543 185.476 330.444 185.639 330.339L185.798 330.234C185.85 330.201 185.903 330.166 185.955 330.127L186.112 330.022L186.195 329.964L186.422 329.806C186.634 329.66 186.832 329.51 187.033 329.357L187.05 329.344L187.367 329.099C187.802 328.756 188.215 328.411 188.587 328.086L188.836 327.868L188.859 327.846L188.988 327.732C189.293 327.459 189.565 327.204 189.793 326.992L189.885 326.902L190.108 326.691L190.242 326.561L190.288 326.514L190.301 326.501L190.528 326.273L190.538 326.263L190.58 326.226C190.593 326.211 190.611 326.197 190.631 326.18L190.648 326.164L190.693 326.124L190.933 325.913L191.068 325.791C191.134 325.734 191.206 325.669 191.28 325.599L191.442 325.458C191.47 325.434 191.498 325.407 191.528 325.381L191.697 325.233L191.947 325.016L192.078 324.901C192.593 324.454 193.22 323.914 193.938 323.305L194.232 323.057L194.72 322.65L195.217 322.234C195.867 321.695 196.568 321.122 197.308 320.527L197.794 320.137C198.208 319.809 198.634 319.472 199.065 319.134C199.238 318.998 199.414 318.862 199.594 318.728C201.055 317.6 202.538 316.502 204.044 315.434L204.5 315.119C204.817 314.899 205.134 314.68 205.452 314.467L205.739 314.272C206.308 313.889 206.882 313.515 207.461 313.148L207.748 312.968L208.033 312.79C208.318 312.614 208.603 312.44 208.885 312.271L209.168 312.103L209.734 311.773C209.92 311.666 210.105 311.561 210.289 311.457L210.4 311.394L210.84 311.154C211.023 311.055 211.206 310.959 211.387 310.866L211.659 310.727L211.922 310.593C212.523 310.292 213.135 310.013 213.757 309.758C213.842 309.722 213.926 309.688 214.01 309.652C214.176 309.582 214.342 309.518 214.507 309.461C214.671 309.406 214.833 309.348 214.993 309.291C215.138 309.243 215.279 309.198 215.416 309.155L215.462 309.141C215.536 309.119 215.609 309.098 215.682 309.079L215.704 309.073C215.853 309.03 216.002 308.991 216.152 308.956H216.164C216.385 308.903 216.6 308.858 216.811 308.822C216.883 308.81 216.954 308.799 217.023 308.789C217.227 308.759 217.433 308.737 217.639 308.723C217.769 308.714 217.901 308.71 218.031 308.71H218.13C218.263 308.71 218.39 308.718 218.517 308.731C218.575 308.731 218.633 308.742 218.69 308.75H218.713C218.77 308.756 218.828 308.766 218.884 308.777C218.939 308.789 218.996 308.797 219.05 308.81H219.069C219.124 308.822 219.175 308.838 219.231 308.853C219.683 308.975 220.099 309.204 220.443 309.52L220.474 309.551L220.534 309.61L220.593 309.673C221.067 310.171 221.46 310.742 221.756 311.363L221.802 311.468C221.903 311.705 221.982 311.949 222.037 312.2C222.191 312.898 222.15 313.626 221.917 314.301C221.817 314.595 221.693 314.881 221.548 315.155L221.451 315.33C221.082 315.948 220.646 316.523 220.151 317.046L220.044 317.158C219.736 317.486 219.412 317.799 219.075 318.098L218.95 318.211C218.69 318.442 218.423 318.666 218.154 318.886C218.106 318.924 218.058 318.962 218.012 319.002C217.824 319.153 217.63 319.307 217.429 319.46C216.735 319.989 216.029 320.5 215.31 320.992C214.886 321.282 214.449 321.574 213.997 321.87C213.154 322.422 212.306 322.962 211.45 323.491C211.202 323.643 210.954 323.798 210.701 323.952C208.374 325.381 205.794 326.91 203.042 328.572L202.33 329.004C201.55 329.479 200.815 329.933 200.123 330.364L199.774 330.583L199.113 331.006C198.852 331.172 198.598 331.335 198.35 331.495C198.163 331.615 197.981 331.733 197.803 331.85L197.45 332.081C197.279 332.194 197.108 332.306 196.938 332.42L196.772 332.526C196.597 332.643 196.427 332.757 196.261 332.871L195.99 333.055L195.672 333.276L195.379 333.48C194.915 333.805 194.457 334.137 194.003 334.475L193.844 334.595C193.666 334.73 193.493 334.865 193.326 334.996L193.109 335.169C192.742 335.464 192.409 335.746 192.109 336.015L191.962 336.15C191.878 336.227 191.795 336.303 191.717 336.379C191.662 336.431 191.611 336.484 191.555 336.536L191.478 336.612C191.309 336.781 191.145 336.954 190.985 337.133L190.907 337.223C190.733 337.423 190.582 337.616 190.448 337.804L190.389 337.889C190.235 338.113 190.099 338.351 189.983 338.598L189.943 338.684L189.918 338.744L189.898 338.796L189.871 338.868C189.862 338.893 189.846 338.937 189.836 338.974C189.788 339.116 189.752 339.261 189.729 339.408L189.717 339.487L189.707 339.559L189.702 339.629V340C189.702 340.031 189.702 340.062 189.709 340.094L189.715 340.151C189.715 340.182 189.723 340.212 189.726 340.244L189.749 340.374V340.38C189.757 340.422 189.765 340.463 189.776 340.504C189.787 340.546 189.797 340.592 189.81 340.635C189.848 340.769 189.894 340.901 189.948 341.03C189.948 341.039 189.956 341.05 189.959 341.059C189.974 341.091 189.987 341.124 190.002 341.156C190.06 341.291 190.125 341.422 190.196 341.551L190.271 341.684L190.349 341.819L190.43 341.954C190.444 341.976 190.46 341.997 190.478 342.016L190.505 342.045L190.533 342.071L190.565 342.095C190.587 342.111 190.609 342.124 190.633 342.137C190.656 342.147 190.682 342.159 190.708 342.169C190.736 342.178 190.765 342.186 190.793 342.194C191.476 342.347 192.879 341.782 194.742 340.8L195.077 340.622L195.644 340.314L195.922 340.161C196.118 340.054 196.32 339.936 196.525 339.819L196.9 339.608C199.364 338.191 202.309 336.371 205.351 334.594C205.635 334.428 205.922 334.262 206.208 334.097L206.783 333.731C207.07 333.565 207.357 333.402 207.644 333.241C208.867 332.547 210.106 331.88 211.36 331.24L211.922 330.956C212.296 330.771 212.666 330.592 213.031 330.417C213.739 330.082 214.455 329.764 215.178 329.462L215.575 329.302L215.623 329.283C217.722 328.452 219.625 327.939 221.166 327.939C221.499 327.936 221.832 327.963 222.16 328.02H222.17C222.276 328.039 222.372 328.06 222.469 328.085H222.487C222.629 328.119 222.769 328.163 222.903 328.217C223.011 328.256 223.115 328.302 223.216 328.357C223.694 328.6 224.098 328.968 224.383 329.422C224.487 329.581 224.577 329.747 224.651 329.922C224.694 330.022 224.735 330.126 224.773 330.239C224.81 330.352 224.844 330.461 224.878 330.578C225.129 331.473 225.104 332.42 224.807 333.302Z" fill="#FF9D00"/>
<path fill-rule="evenodd" clip-rule="evenodd" d="M210.853 269.134V268.556C210.853 219.112 170.728 179.031 121.212 179.031C71.6974 179.031 31.5572 219.115 31.5572 268.556V268.749C31.5549 268.878 31.5537 269.006 31.5572 269.134C31.562 269.327 31.5643 269.52 31.562 269.712L31.5691 270.137L31.5714 270.291L31.5773 270.501C31.5797 270.615 31.5833 270.727 31.5833 270.84L31.5951 271.3L31.614 271.84L31.6199 272.017L31.6436 272.576V272.602L31.6767 273.255V273.271C31.6978 273.701 31.7235 274.129 31.7536 274.558L31.7571 274.595C31.7678 274.771 31.7796 274.948 31.7926 275.124L31.7962 275.17C31.808 275.34 31.821 275.511 31.8352 275.68L31.8376 275.713L31.8613 276.009C31.9322 276.86 32.015 277.712 32.1097 278.561L32.1156 278.615L32.1866 279.238L32.2694 279.895C32.3564 280.595 32.4527 281.294 32.558 281.992L32.5639 282.024C32.912 284.338 33.3532 286.636 33.8865 288.915L33.8925 288.942L33.9303 289.101C33.9658 289.252 34.0013 289.404 34.0391 289.556L34.1042 289.477C36.7068 286.37 40.4403 284.657 44.6175 284.657C47.9653 284.657 51.4007 285.762 54.8421 287.941C57.1253 289.389 59.6498 291.955 62.2476 295.182C64.6515 291.847 68.0206 289.632 71.8748 289.027C72.6106 288.911 73.3536 288.852 74.0965 288.851C82.8944 288.851 88.193 296.475 90.1946 303.331C91.1824 305.649 95.9499 316.2 103.138 323.337C114.063 334.237 116.797 345.486 111.39 357.529H111.408C111.777 357.57 112.147 357.607 112.519 357.642C112.74 357.663 112.961 357.684 113.183 357.703L113.261 357.71C113.423 357.726 113.586 357.74 113.749 357.752L114.199 357.788C114.627 357.821 115.056 357.851 115.488 357.879L115.829 357.899L116.1 357.915L116.269 357.924L116.797 357.952L116.941 357.958L117.497 357.982L118.113 358.006L118.61 358.02L118.693 358.023C118.797 358.027 118.904 358.032 119.009 358.032L119.121 358.034C119.819 358.05 120.516 358.059 121.214 358.059H121.954L122.484 358.053C122.615 358.046 122.744 358.046 122.874 358.046H123.08L123.258 358.042C123.328 358.04 123.399 358.037 123.469 358.037H123.68L124.096 358.026L124.72 358.004L125.409 357.975C125.606 357.967 125.803 357.957 126 357.947L126.212 357.935L126.526 357.917L126.711 357.906L126.85 357.898L127.485 357.856C127.697 357.843 127.908 357.826 128.12 357.809L128.695 357.765L129.101 357.73L129.545 357.69C130 357.648 130.454 357.603 130.906 357.555C131.195 357.524 131.481 357.492 131.769 357.457L132.274 357.397C126.951 345.403 129.707 334.205 140.588 323.348C147.759 316.193 152.527 305.64 153.52 303.323C155.523 296.466 160.817 288.843 169.617 288.843C170.361 288.844 171.104 288.902 171.839 289.019C175.69 289.623 179.06 291.84 181.467 295.173C184.066 291.947 186.59 289.381 188.873 287.933C192.314 285.753 195.752 284.649 199.096 284.649C202.782 284.649 206.124 285.984 208.648 288.431C208.786 287.815 208.92 287.198 209.048 286.579C209.126 286.193 209.203 285.805 209.278 285.417C209.371 284.939 209.458 284.46 209.539 283.98C209.56 283.85 209.582 283.72 209.607 283.589C209.646 283.385 209.681 283.183 209.712 282.977L209.725 282.899L209.809 282.364L209.892 281.822L209.893 281.816C209.927 281.589 209.961 281.361 209.992 281.133C210.016 280.961 210.04 280.788 210.063 280.615L210.077 280.515L210.15 279.951L210.21 279.47C210.262 279.026 210.311 278.582 210.358 278.137L210.37 278.035C210.393 277.823 210.413 277.613 210.432 277.401L210.479 276.91C210.577 275.821 210.656 274.732 210.718 273.64V273.633L210.75 273.054L210.756 272.924L210.779 272.375C210.789 272.168 210.797 271.959 210.804 271.748V271.732L210.81 271.58C210.816 271.45 210.821 271.32 210.821 271.191L210.823 271.138C210.828 271.018 210.833 270.892 210.833 270.768L210.836 270.662C210.84 270.538 210.843 270.415 210.843 270.291L210.846 270.186C210.849 270.028 210.853 269.87 210.853 269.712V269.134ZM98.976 358.569C106.075 348.171 105.572 340.367 95.8304 330.645C86.0885 320.923 80.4184 306.704 80.4184 306.704C80.4184 306.704 78.302 298.444 73.4754 299.204C68.6488 299.962 65.1081 312.304 75.2132 319.858C85.3183 327.413 73.2033 332.535 69.3136 325.446C65.4228 318.356 54.8042 300.131 49.2974 296.645C43.7917 293.159 39.9198 295.113 41.2175 302.298C41.8623 305.864 47.8577 311.95 53.4592 317.637C59.1423 323.408 64.4196 328.765 63.2922 330.661C61.0528 334.428 53.1658 326.237 53.1658 326.237C53.1658 326.237 28.4696 303.796 23.0941 309.644C18.1373 315.035 25.7795 319.617 37.5574 326.679C38.5594 327.28 39.5921 327.9 40.6473 328.537C54.1216 336.684 55.1698 338.833 53.2581 341.915C52.5518 343.054 48.0411 340.349 42.4928 337.023C33.0348 331.353 20.5625 323.876 18.8022 330.568C17.2773 336.36 26.4526 339.909 34.7738 343.128C41.7061 345.81 48.047 348.262 47.1148 351.591C46.1483 355.042 40.9088 352.164 35.1807 349.017C28.7512 345.484 21.7064 341.612 19.402 345.981C15.0438 354.238 49.4618 363.959 49.7457 364.03C60.8659 366.91 89.1051 373.013 98.976 358.569ZM144.715 358.569C137.615 348.171 138.119 340.367 147.861 330.645C157.603 320.923 163.274 306.704 163.274 306.704C163.274 306.704 165.389 298.444 170.216 299.204C175.042 299.962 178.584 312.304 168.478 319.858C158.372 327.413 170.488 332.535 174.379 325.446C178.268 318.356 188.882 300.131 194.388 296.645C199.894 293.159 203.767 295.113 202.469 302.298C201.824 305.864 195.829 311.952 190.226 317.639C184.544 323.408 179.267 328.765 180.394 330.661C182.633 334.428 190.527 326.233 190.527 326.233C190.527 326.233 215.222 303.791 220.598 309.64C225.554 315.03 217.911 319.614 206.133 326.677C205.131 327.277 204.1 327.895 203.044 328.534C189.568 336.679 188.521 338.829 190.433 341.91C191.139 343.049 195.65 340.345 201.197 337.019C210.656 331.349 223.129 323.871 224.889 330.563C226.414 336.355 217.239 339.905 208.916 343.124C201.984 345.806 195.644 348.257 196.575 351.587C197.542 355.038 202.779 352.159 208.505 349.012C214.934 345.479 221.98 341.606 224.286 345.976C228.644 354.24 194.221 363.95 193.942 364.022C182.822 366.91 154.581 373.013 144.715 358.569Z" fill="#FFD21E"/>
<path fill-rule="evenodd" clip-rule="evenodd" d="M150.329 244.189C151.726 244.683 152.766 246.187 153.755 247.616C155.091 249.55 156.336 251.348 158.245 250.335C160.498 249.14 162.346 247.304 163.554 245.059C164.761 242.815 165.275 240.264 165.03 237.728C164.756 234.868 163.532 232.182 161.554 230.097C159.575 228.012 156.955 226.648 154.111 226.222C151.907 225.89 149.654 226.135 147.573 226.932C145.492 227.729 143.653 229.051 142.236 230.768C140.614 232.734 139.612 235.136 139.356 237.671C139.1 240.205 139.602 242.758 140.798 245.008C141.683 246.67 143.647 245.887 145.72 245.059C147.345 244.41 149.037 243.735 150.329 244.189ZM89.5512 244.191C88.154 244.684 87.113 246.188 86.124 247.618C84.7872 249.55 83.5427 251.349 81.6334 250.336C79.9497 249.441 78.4857 248.185 77.3467 246.657C76.2077 245.13 75.4221 243.369 75.0465 241.502C74.6703 239.635 74.7132 237.708 75.1723 235.86C75.6313 234.011 76.495 232.287 77.7011 230.812C78.9087 229.338 80.4283 228.149 82.1508 227.331C83.8733 226.513 85.7558 226.087 87.6631 226.082C90.8651 226.076 93.9551 227.258 96.3327 229.4C98.7102 231.542 100.206 234.49 100.528 237.671C100.784 240.206 100.281 242.76 99.0825 245.009C98.1953 246.671 96.2315 245.887 94.1589 245.059C92.5347 244.41 90.843 243.735 89.5512 244.191ZM140.926 299.419C150.559 291.839 154.098 279.467 154.098 271.845C154.098 265.821 150.038 267.717 143.539 270.929L143.174 271.111C137.208 274.06 129.268 277.987 120.551 277.987C111.834 277.987 103.894 274.059 97.9303 271.11C91.2216 267.791 87.0136 265.71 87.0136 271.847C87.0136 279.708 90.7779 292.619 101.111 300.12C102.474 297.356 104.393 294.903 106.749 292.913C109.105 290.924 111.847 289.442 114.803 288.56C115.835 288.253 116.897 290.026 117.986 291.841C119.035 293.593 120.107 295.383 121.199 295.383C122.36 295.383 123.503 293.618 124.619 291.895C125.784 290.095 126.92 288.339 128.019 288.69C133.55 290.463 138.177 294.309 140.926 299.419Z" fill="#32343D"/>
<path d="M140.923 299.417C135.906 303.365 129.237 306.012 120.554 306.012C112.395 306.012 106.012 303.676 101.111 300.119C102.475 297.355 104.395 294.903 106.751 292.914C109.107 290.924 111.848 289.442 114.803 288.558C116.83 287.955 118.976 295.382 121.197 295.382C123.576 295.382 125.868 288.002 128.018 288.688C133.548 290.463 138.173 294.308 140.923 299.417Z" fill="#FF323D"/>
<path fill-rule="evenodd" clip-rule="evenodd" d="M66.5162 254.906C65.6011 255.522 64.5732 255.951 63.4915 256.168C62.4098 256.386 61.2958 256.388 60.2132 256.175C58.5834 255.853 57.086 255.055 55.911 253.882C54.736 252.709 53.9362 251.214 53.6132 249.587C53.2902 247.959 53.4584 246.273 54.0966 244.741C54.7348 243.209 55.8141 241.901 57.1978 240.983C59.0468 239.757 61.3069 239.314 63.4828 239.749C65.6588 240.185 67.573 241.464 68.8062 243.307C70.0393 245.149 70.4907 247.404 70.0615 249.579C69.6322 251.753 68.3574 253.669 66.5162 254.906ZM186.486 254.906C185.108 255.833 183.484 256.33 181.822 256.334C180.16 256.337 178.534 255.847 177.152 254.926C176.234 254.315 175.446 253.529 174.833 252.613C174.22 251.696 173.794 250.668 173.579 249.588C173.148 247.404 173.603 245.14 174.843 243.291C175.767 241.918 177.078 240.848 178.611 240.218C180.143 239.588 181.828 239.425 183.453 239.749C185.628 240.186 187.542 241.465 188.775 243.307C190.008 245.149 190.46 247.404 190.031 249.578C189.602 251.753 188.327 253.668 186.486 254.906Z" fill="#FFAD03"/>
</svg>
