<svg width="512" height="512" viewBox="0 0 512 512" fill="none" xmlns="http://www.w3.org/2000/svg">
<mask id="mask0_108_941" style="mask-type:alpha" maskUnits="userSpaceOnUse" x="0" y="0" width="512" height="512">
<rect width="512" height="512" fill="#D9D9D9"/>
</mask>
<g mask="url(#mask0_108_941)">
</g>
<path fill-rule="evenodd" clip-rule="evenodd" d="M234.426 362.124H141.971L133.397 293.52L77.1197 252.787C74.7105 240.728 73.6348 228.4 73.6348 216.341C73.6348 115.578 155.369 33.8438 255.864 33.8438C356.624 33.8438 438.361 115.578 438.361 216.341C438.361 228.403 437.023 240.728 434.611 252.787L378.602 293.517L370.025 362.122H277.302L271.942 365.872C267.387 369.357 261.758 371.238 255.864 371.238C250.235 371.238 244.61 369.36 239.783 365.872L234.426 362.124ZM237.374 330.234H170.108L163.409 275.835L107.937 235.636C106.345 229.328 105.535 222.847 105.525 216.341C105.525 205.352 107.671 194.635 112.224 184.719L210.307 283.875L114.904 165.961C118.657 150.685 126.963 137.019 138.754 126.567L224.242 274.225L148.404 112.632C158.317 99.5025 171.986 89.8525 187.528 85.0289L239.783 268.331L201.733 77.5251C213.366 71.0349 226.464 67.6228 239.786 67.6121C242.466 67.6121 245.414 67.6121 248.094 68.1487L255.867 266.456L263.639 68.1487C266.584 67.6121 269.267 67.6121 272.216 67.6121C285.616 67.6121 298.477 71.0944 310.268 77.5251L271.945 268.331L324.203 85.0289C340.015 89.8499 353.681 99.4999 363.329 112.632L287.486 274.225L372.973 126.567C384.764 137.019 393.07 150.685 396.826 165.961L301.421 283.875L399.772 184.719C404.056 194.635 406.468 205.352 406.468 216.341C406.468 222.772 405.663 229.205 404.056 235.636L348.587 275.832L341.62 330.231H274.354L264.441 337.47C262.029 339.347 259.081 340.152 255.864 340.152C252.916 340.152 249.701 339.347 247.287 337.47L237.374 330.234Z" fill="#CC2229"/>
<path fill-rule="evenodd" clip-rule="evenodd" d="M237.374 330.231H170.108L163.409 275.832L107.937 235.633C106.345 229.325 105.535 222.845 105.525 216.338C105.525 205.35 107.672 194.632 112.224 184.716L210.307 283.872L114.904 165.958C118.658 150.682 126.964 137.016 138.755 126.564L224.242 274.223L148.405 112.629C158.318 99.4998 171.986 89.8498 187.528 85.0261L239.783 268.328L201.733 77.5223C213.367 71.0321 226.465 67.62 239.786 67.6094C242.466 67.6094 245.415 67.6094 248.095 68.1459L255.867 266.453L263.639 68.1459C266.585 67.6094 269.267 67.6094 272.216 67.6094C285.616 67.6094 298.478 71.0917 310.269 77.5223L271.945 268.328L324.203 85.0261C340.015 89.8471 353.682 99.4972 363.329 112.629L287.486 274.223L372.974 126.564C384.765 137.016 393.071 150.682 396.826 165.958L301.421 283.872L399.772 184.716C404.057 194.632 406.468 205.35 406.468 216.338C406.468 222.769 405.664 229.202 404.057 235.633L348.587 275.83L341.62 330.229H274.354L264.441 337.467C262.029 339.345 259.081 340.15 255.864 340.15C252.916 340.15 249.702 339.345 247.287 337.467L237.374 330.231Z" fill="#F6D330"/>
<path fill-rule="evenodd" clip-rule="evenodd" d="M413.438 476.018V398.568H438.361V476.018H413.438ZM366.277 476.018V398.568H391.198V476.018H366.277ZM351.004 451.095H293.117V452.168C293.117 452.973 293.117 453.775 293.383 454.58C293.383 455.384 293.654 456.187 293.922 456.986C294.188 457.791 294.727 458.864 295.529 459.669C296.063 460.474 296.602 461.276 297.402 462.081C298.207 462.886 299.28 463.419 300.353 463.953C301.421 464.493 302.496 465.026 303.835 465.56C304.908 465.831 305.979 466.1 307.052 466.1C308.391 466.365 309.464 466.365 310.537 466.365H310.802C311.607 466.365 312.68 466.365 313.748 466.1C314.821 466.1 315.897 465.829 316.699 465.56C317.767 465.295 318.843 465.026 319.645 464.493C320.45 464.222 321.252 463.688 322.057 463.148C322.322 462.615 322.862 462.081 323.395 461.544C323.666 461.005 324.2 460.471 324.469 459.666V459.395C324.469 459.13 324.734 459.13 324.734 458.861H349.392C349.121 459.132 349.121 459.666 348.853 459.935C348.853 459.935 348.853 460.2 348.587 460.468C348.249 461.412 347.798 462.311 347.243 463.146C346.438 464.219 345.636 465.024 344.831 466.097C343.763 467.436 342.419 468.509 341.081 469.579C339.742 470.652 338.135 471.457 336.796 472.53C334.652 473.598 332.775 474.403 330.634 475.208C328.222 476.013 325.81 476.546 323.395 477.086C321.252 477.351 319.111 477.89 316.699 477.89C314.55 478.156 312.409 478.156 310.266 478.156H309.732C307.32 478.156 304.637 478.156 302.225 477.89C300.082 477.62 297.67 477.086 295.529 476.817C292.313 476.013 289.367 474.939 286.684 473.872C284.003 472.513 281.407 470.992 278.912 469.316C277.084 467.755 275.382 466.051 273.823 464.222C272.479 462.615 271.14 460.471 270.338 458.327C269.533 456.72 268.999 454.843 268.465 452.967C268.194 451.089 267.926 449.211 267.926 447.068C267.926 445.195 268.197 443.046 268.465 440.905C268.999 439.033 269.533 437.155 270.338 435.277C271.411 433.133 272.75 431.261 274.359 429.383C275.966 427.239 277.842 425.632 279.988 424.023C282.008 422.492 284.161 421.147 286.421 420.001C288.769 418.946 291.186 418.049 293.654 417.318C296.066 416.784 298.478 416.251 300.892 415.98C303.57 415.709 306.252 415.446 308.664 415.446H309.737C312.415 415.446 315.097 415.711 317.772 415.98C320.455 416.513 323.133 417.053 325.544 417.587C328.227 418.391 331.173 419.464 333.585 420.803C335.997 422.142 338.408 423.481 340.552 425.359C342.425 426.966 344.302 428.844 345.912 431.258C347.251 433.402 348.324 435.543 349.129 438.22C349.663 439.832 350.202 441.442 350.468 443.315C350.738 445.193 351.007 447.065 351.007 449.209V449.748L351.004 451.095ZM327.149 439.572H293.38V438.767C293.38 438.496 293.38 438.496 293.651 438.228C293.651 437.694 293.922 437.16 293.922 436.624C294.188 435.813 294.456 435.28 294.727 434.746C295.261 434.212 295.532 433.407 296.066 432.868C296.605 432.068 297.404 431.529 297.944 430.995C298.749 430.19 299.816 429.656 300.889 429.117C301.694 428.583 302.762 428.049 303.835 427.778L307.052 426.974H310.537C311.876 426.974 313.214 426.974 314.287 427.245C315.626 427.51 316.699 427.778 317.77 428.312C318.843 428.583 319.648 428.852 320.452 429.385C321.52 429.919 322.325 430.724 322.864 431.263C323.669 431.797 323.932 432.331 324.471 432.868C325.005 433.407 325.276 433.941 325.81 434.746C326.076 435.28 326.344 435.813 326.615 436.624C326.88 437.158 326.88 437.962 327.149 438.496V439.572ZM201.465 398.568V424.564L202.538 423.491C202.806 423.491 202.806 423.226 203.075 423.226C204.145 422.421 205.218 421.619 206.289 421.082C207.663 420.262 209.096 419.544 210.576 418.933C212.454 418.128 214.061 417.595 215.668 417.061C217.275 416.521 218.884 416.256 220.76 415.988C222.098 415.717 223.708 415.454 225.315 415.183H230.139C231.746 415.183 233.624 415.454 235.231 415.717C236.838 415.988 238.447 416.521 240.054 417.061C241.659 417.595 243.537 418.399 244.875 419.472C246.482 420.54 248.092 421.884 249.431 423.223C250.504 424.562 251.574 426.169 252.379 427.508C253.184 428.852 253.718 430.459 253.983 431.797C254.254 433.136 254.52 434.475 254.52 435.813C254.788 437.426 254.788 439.298 254.788 440.908V476.015H230.67V443.856C230.67 442.789 230.402 441.45 230.402 440.374V438.496C230.402 437.691 230.133 436.624 229.599 435.813L227.992 433.407C227.188 432.602 226.383 432.068 225.578 431.529C224.776 430.995 223.971 430.461 222.898 430.19C222.093 429.919 221.02 429.656 220.218 429.656C219.145 429.385 218.342 429.385 217.538 429.385H217.001C216.196 429.385 215.126 429.656 214.053 429.656C213.248 429.922 212.446 430.19 211.641 430.461C210.568 430.727 209.497 431.266 208.692 431.8C207.622 432.605 206.817 433.407 205.744 434.212L203.332 437.428C202.796 438.496 202.259 439.572 201.991 440.911C201.723 441.716 201.723 442.518 201.723 443.054C201.454 444.127 201.454 445.203 201.454 446.271V476.018H176.534V398.568H201.465ZM159.391 421.887H133.665V421.082V420.543C133.665 419.738 133.665 418.936 133.397 418.399C133.129 417.595 132.86 417.061 132.592 416.256C132.279 415.605 131.921 414.978 131.519 414.378C130.982 413.844 130.446 413.305 129.644 412.771C129.034 412.174 128.302 411.717 127.498 411.432C126.695 410.898 125.89 410.627 125.086 410.359L121.869 409.554C120.799 409.289 119.725 409.289 118.655 409.289H115.704C114.633 409.289 113.829 409.554 112.756 409.822C111.682 409.822 110.878 410.093 109.807 410.627C109.005 410.898 108.2 411.432 107.127 411.7C106.59 412.234 105.788 412.768 105.252 413.305C104.447 413.844 103.913 414.378 103.645 415.183C103.108 415.717 102.84 416.521 102.572 417.061C102.303 417.86 102.035 418.668 102.035 419.472C102.035 420.006 102.303 420.811 102.572 421.616C102.572 422.15 103.108 422.955 103.376 423.489L105.254 425.367C106.059 425.638 106.861 426.171 107.666 426.44C108.471 426.705 109.273 426.974 110.075 426.974C111.417 427.245 112.487 427.508 113.829 427.508C115.436 427.778 117.314 427.778 118.921 428.047C120.528 428.047 122.406 428.312 124.013 428.312C126.693 428.583 129.641 428.583 132.319 428.852C133.657 428.852 134.73 429.117 135.803 429.117C138.215 429.388 140.895 429.656 143.307 430.19C145.451 430.724 147.329 431.263 149.472 432.068C151.675 432.896 153.682 434.171 155.366 435.813C157.244 437.158 158.583 439.035 159.654 440.908C160.458 442.247 160.992 443.854 161.261 445.198C161.529 446.802 161.797 448.409 161.797 450.287C161.797 451.894 161.529 453.772 161.261 455.382C160.992 456.986 160.187 458.593 159.654 459.937C158.583 461.81 157.51 463.688 156.169 465.026C154.83 466.633 153.488 467.709 151.881 468.777C149.47 470.384 147.06 471.728 144.378 472.798C141.698 473.872 138.752 474.676 135.803 475.481C132.855 476.015 129.907 476.286 126.958 476.82C123.744 477.091 120.528 477.091 117.311 477.354H116.24C113.56 477.354 110.878 477.088 108.2 477.088C105.252 476.817 102.303 476.549 99.355 476.015C96.7349 475.518 94.1411 474.891 91.5829 474.137C89.1711 473.603 87.0275 472.533 84.884 471.46C83.3601 470.725 81.9215 469.826 80.5942 468.777C79.2555 467.438 78.1824 466.1 77.1092 464.755C76.5727 463.688 76.0388 462.883 75.5022 461.81C75.0222 460.598 74.6637 459.342 74.4318 458.059C74.1635 457.254 73.8952 456.452 73.8952 455.647C73.627 454.58 73.627 453.775 73.627 452.702V452.431V451.626H99.355V453.504C99.355 454.038 99.6233 454.843 99.6233 455.647L100.425 457.254C100.962 458.059 101.499 458.593 102.032 459.398C102.569 459.937 103.371 460.471 103.91 461.005C104.981 461.544 105.786 462.078 106.859 462.612C107.929 462.883 109.271 463.417 110.341 463.685C111.414 463.951 112.753 464.219 114.094 464.49C115.165 464.49 116.506 464.755 117.848 464.755C119.186 464.755 120.257 464.49 121.33 464.49C122.669 464.49 123.742 464.219 125.083 463.951C126.153 463.685 127.227 463.417 128.3 462.883C129.102 462.612 129.907 462.349 130.712 461.81C131.516 461.544 132.319 461.005 132.855 460.471C133.392 459.666 133.926 459.132 134.462 458.327C134.73 457.523 134.999 456.983 135.267 456.184C135.535 455.379 135.535 454.577 135.535 453.772C135.535 453.233 135.535 452.428 135.267 451.623C135.267 451.089 134.999 450.555 134.462 450.016C133.995 449.336 133.456 448.708 132.855 448.144C132.05 447.604 131.248 447.339 130.175 447.07C129.37 446.8 128.3 446.537 127.227 446.266C125.888 446.266 124.815 446 123.473 446L111.682 445.195C109.539 444.924 107.127 444.924 104.715 444.656C102.569 444.39 100.16 444.122 97.7453 443.851C95.4157 443.347 93.093 442.812 90.7781 442.244C89.1711 441.71 87.5641 441.176 85.9544 440.372C84.6157 439.567 83.2743 438.765 82.2012 437.689C80.8625 436.35 79.7894 434.743 78.9872 433.404C77.9141 431.797 77.3802 430.188 76.8436 428.31C76.5753 426.703 76.3071 424.827 76.3071 423.22C76.3071 421.077 76.3071 419.199 76.8436 417.058C77.3802 415.451 77.9141 413.573 78.9872 412.234C80.0576 410.091 81.6673 408.213 83.5426 406.335C85.4179 404.731 87.2931 403.389 89.705 402.319C91.8485 401.246 94.2604 400.441 96.4039 399.636C99.0263 398.843 101.719 398.305 104.444 398.029C106.82 397.498 109.246 397.228 111.68 397.224C114.094 396.953 116.238 396.953 118.65 396.953H119.72C122.4 396.953 125.08 397.224 127.758 397.224C130.17 397.495 132.85 398.029 135.262 398.297C137.673 398.831 140.354 399.636 142.497 400.441C144.641 401.246 146.784 402.048 148.93 403.386C150.269 404.191 151.611 404.993 152.681 406.069C154.02 407.142 154.825 408.481 155.629 409.82C156.434 410.625 156.968 411.698 157.236 412.766C157.773 413.839 158.039 414.909 158.575 415.982C158.575 416.787 158.843 417.321 158.843 418.126C159.112 418.931 159.112 419.47 159.38 420.275V420.809L159.391 421.887Z" fill="#CC2229"/>
</svg>
