<svg xmlns="http://www.w3.org/2000/svg" data-name="Layer 1" viewBox="0 0 214 96" width="2500" height="1121"><g data-name="Components-/-Navigation-/-Main"><path d="M127.27 40.78c-.12-.04-.27-.08-.39-.08-.19 0-.39.08-.54.16-.16.12-.31.27-.39.47L122.1 51.8l-3-7.01c-.08-.19-.23-.35-.39-.47s-.39-.16-.58-.16-.39.08-.54.16c-.16.12-.31.27-.39.47l-3 7.05-3.89-10.47a.93.93 0 0 0-.39-.47.88.88 0 0 0-.54-.16c-.12 0-.27.04-.39.08-.35.16-.58.54-.58.93 0 .12.04.23.08.35l4.79 12.73c.04.08.08.19.16.27.04.08.16.12.23.16l.08.08c.04.04.08.04.16.04.08.04.19.08.35.08.19 0 .39-.08.54-.16.16-.12.27-.23.35-.43l3.04-7.16 3.04 7.12c.08.19.19.35.35.43.16.12.31.19.51.19h.12c.12 0 .23-.04.35-.08s.19-.08.27-.16c.16-.12.27-.27.35-.47l4.75-12.65c.04-.12.08-.23.08-.35-.12-.43-.31-.82-.7-.97Zm-21.84 7.28c0-1.48-.58-2.84-1.52-3.82-.93-.97-2.18-1.6-3.54-1.6s-2.61.58-3.54 1.6c-.93.97-1.52 2.34-1.52 3.82s.58 2.84 1.52 3.82 2.18 1.56 3.54 1.56 2.61-.58 3.54-1.56c.93-.97 1.52-2.34 1.52-3.82m-.04-5.18c1.28 1.36 2.06 3.19 2.06 5.18s-.78 3.85-2.06 5.18c-1.28 1.32-3.04 2.18-5.02 2.18s-3.74-.86-5.02-2.18c-1.28-1.36-2.06-3.19-2.06-5.18s.78-3.85 2.06-5.18c1.28-1.32 3.04-2.18 5.02-2.18 1.99-.04 3.74.82 5.02 2.18M85.26 40.7c-1.6 0-3.04.62-4.13 1.6v-.58c0-.27-.12-.51-.27-.7s-.43-.31-.7-.31-.54.12-.74.31-.27.43-.27.7v13l.04.04s.04.08.08.12c.16.23.35.43.66.51h.27c.16 0 .31-.04.43-.08s.23-.16.31-.27 0-.04.04-.04c.04-.08.12-.16.12-.19.04-.08.04-.16.08-.19v-7.86c.04-1.13.51-2.14 1.25-2.88s1.75-1.21 2.88-1.21 2.14.47 2.88 1.21 1.21 1.75 1.21 2.84v7.67c0 .27.12.54.31.7.19.19.43.27.7.27s.51-.12.7-.27c.19-.19.31-.43.31-.7v-7.67c-.04-3.27-2.76-6-6.15-6ZM185 46.62c-.58-2.3-2.61-3.97-4.98-3.97s-4.44 1.6-5.06 3.97zm2.22.97v.12c0 .27-.12.54-.31.7s-.43.23-.7.27h-11.37c.27 2.76 2.49 4.79 5.14 4.79h.66c.86 0 1.71-.31 2.49-.78.74-.51 1.4-1.17 1.87-1.95.08-.16.23-.27.39-.35s.31-.12.47-.12c.19 0 .35.04.51.16.27.19.47.51.47.86 0 .19-.04.35-.16.51-.62 1.01-1.52 1.91-2.53 2.57s-2.22 1.09-3.5 1.09h-.66c-1.99 0-3.78-.86-5.1-2.18-1.28-1.32-2.1-3.15-2.1-5.18s.82-3.89 2.1-5.22c1.32-1.32 3.11-2.18 5.14-2.18 1.91 0 3.66.74 4.91 1.99 1.32 1.21 2.14 2.96 2.3 4.91Zm-46.56-12.96c-.27 0-.54.12-.7.31-.19.19-.31.43-.31.7v18.8c0 .27.12.54.31.7.19.19.43.31.7.31.58 0 1.05-.47 1.05-1.01v-18.8c-.04-.58-.51-1.01-1.05-1.01M74.48 47.71c-.82-.39-1.75-.66-2.69-.97-.86-.27-1.71-.54-2.34-.86-.31-.16-.54-.35-.7-.54a.95.95 0 0 1-.23-.66c0-.35.12-.66.31-.93.27-.39.74-.7 1.25-.9s1.05-.31 1.44-.31c1.13 0 1.87.39 2.41.78.27.19.51.39.74.54.12.08.23.16.35.23.12.04.23.12.39.12.08 0 .19 0 .27-.04s.16-.08.23-.16c.08-.08.16-.16.19-.23.04-.08.08-.19.08-.27 0-.19-.04-.35-.16-.51-.16-.27-.39-.54-.7-.82-.43-.39-1.05-.78-1.67-1.05s-1.32-.47-1.95-.47c-1.52 0-2.76.35-3.66.97-.47.31-.9.66-1.21 1.17s-.47 1.09-.51 1.91v.12c0 .78.23 1.4.62 1.91.58.74 1.48 1.21 2.34 1.52s1.71.51 2.26.7c.78.23 1.6.54 2.18.9.31.19.54.39.7.62s.23.47.23.74v.04c0 .43-.12.78-.35 1.05-.31.43-.86.74-1.4.93s-1.13.27-1.52.27c-1.32 0-2.18-.31-2.84-.62-.31-.16-.58-.31-.82-.43-.12-.08-.23-.12-.35-.16s-.23-.08-.35-.08c-.08 0-.16 0-.27.04-.08.04-.16.08-.23.16-.08.08-.16.19-.23.27-.04.12-.08.23-.08.35 0 .19.08.39.19.54.16.23.39.43.7.66.31.19.7.43 1.13.62.93.43 2.18.66 3.11.7 1.44 0 2.69-.31 3.74-1.09 1.01-.78 1.67-1.91 1.67-3.19 0-.7-.16-1.32-.47-1.79-.31-.93-1.01-1.44-1.83-1.79Zm81.44.35c0-1.52-.58-2.84-1.48-3.82-.93-.97-2.18-1.56-3.54-1.56s-2.61.58-3.54 1.56c-.93.97-1.52 2.34-1.52 3.82s.58 2.84 1.52 3.82c.93.97 2.18 1.56 3.54 1.56s2.65-.58 3.54-1.56c.9-.97 1.48-2.3 1.48-3.82m1.71-7.09c.19.19.31.43.31.7V54.4c0 .27-.12.54-.31.7-.19.19-.43.31-.7.31s-.54-.12-.7-.31a1 1 0 0 1-.31-.7v-1.25c-1.28 1.36-3.08 2.26-5.06 2.26s-3.74-.86-5.02-2.18-2.06-3.19-2.06-5.18.78-3.85 2.06-5.18c1.28-1.32 3.04-2.18 5.02-2.18s3.78.86 5.06 2.22V41.7c0-.27.12-.54.31-.7a.95.95 0 0 1 .7-.27c.27-.08.51.04.7.23Zm14.29 1.29c.19-.19.31-.47.31-.74s-.12-.51-.31-.7-.43-.31-.7-.31-.51.12-.7.31l-7.9 7.63V35.6c0-.54-.47-1.01-1.05-1.01-.27 0-.54.12-.7.31-.19.19-.31.43-.31.7v18.8c0 .27.12.54.31.7.19.19.43.31.7.31.58 0 1.05-.47 1.05-1.01v-3.11l2.57-2.57 5.26 6.27c.12.16.23.23.35.31.16.04.31.08.43.08.19 0 .43-.04.66-.19.19-.19.31-.47.31-.74 0-.23-.08-.47-.23-.66l-5.33-6.42 5.29-5.1Zm-35.47-7.59h-.39c-.58 0-1.17.08-1.67.23-.51.16-1.01.47-1.36.9-.39.43-.62.93-.78 1.52s-.23 1.25-.23 1.99v1.44h-1.6c-.54 0-1.01.43-1.01.97 0 .27.12.54.31.74s.43.31.7.31h1.6v11.72c0 .27.12.54.31.7.19.19.43.27.74.27.54 0 .97-.43.97-.97V42.77h1.71c.27 0 .54-.12.7-.31.19-.19.31-.43.31-.74v-.04c0-.54-.47-.97-1.01-.97h-1.71v-1.4c0-.62.08-1.09.16-1.44s.23-.58.35-.7.27-.23.51-.31c.23-.08.58-.12 1.01-.12h.39c.58 0 1.01-.47 1.01-1.01.04-.58-.43-1.05-1.01-1.05ZM34.54 48.72c.08-.27.12-.51.12-.78 0-.19-.04-.39-.08-.58-.16-.58-.55-1.09-1.13-1.44l-8.21-4.67c-1.17-.66-2.65-.27-3.31.9-.66 1.13-.27 2.61.9 3.27l4.59 2.65-4.59 2.61c-1.17.66-1.56 2.14-.9 3.27s2.14 1.52 3.31.86l8.21-4.71c.55-.31.93-.82 1.09-1.36Zm2.26 4.4c-.47-.04-.97.04-1.4.31l-8.21 4.71c-1.17.66-1.56 2.14-.9 3.27s2.14 1.56 3.31.86l4.59-2.65v5.26c0 1.32 1.09 2.41 2.41 2.41s2.41-1.09 2.41-2.41V55.5c0-1.25-.97-2.3-2.22-2.37Zm8.41-10.24c.47.04.97-.08 1.4-.31l8.21-4.71c1.17-.66 1.56-2.14.9-3.27s-2.14-1.56-3.31-.86l-4.59 2.65v-5.26c0-1.32-1.09-2.41-2.41-2.41S43 29.8 43 31.12v9.38c-.04 1.25.97 2.3 2.22 2.37ZM27.18 37.9l8.21 4.71c.43.23.93.35 1.4.31a2.38 2.38 0 0 0 2.22-2.37v-9.42c0-1.32-1.09-2.41-2.41-2.41s-2.41 1.09-2.41 2.41v5.26l-4.59-2.65c-1.17-.66-2.65-.27-3.31.86-.66 1.17-.27 2.65.9 3.31ZM42.6 47.98c0-.16-.08-.31-.19-.43l-.97-.97c-.12-.08-.27-.19-.43-.19h-.04c-.16 0-.31.08-.43.19l-.97.97c-.12.12-.16.27-.16.43v.04c0 .12.08.31.16.43l.97.97c.12.08.27.19.43.19h.04c.16 0 .31-.08.43-.19l.97-.97c.12-.08.19-.27.19-.47m2.72.93-3.43 3.39c-.12.12-.27.19-.43.19h-.97c-.16 0-.31-.08-.43-.19l-3.43-3.39c-.12-.08-.19-.27-.19-.43v-.97c0-.16.08-.31.19-.43l3.43-3.39c.12-.12.27-.19.43-.19h.97c.16 0 .35.08.43.19l3.43 3.39c.12.08.19.27.19.43v.97c0 .16-.08.35-.19.43m9.5 9.23-8.21-4.71c-.43-.27-.93-.35-1.4-.31a2.38 2.38 0 0 0-2.22 2.37v9.38c0 1.32 1.09 2.41 2.41 2.41s2.41-1.09 2.41-2.41v-5.26l4.59 2.65c1.17.66 2.65.27 3.31-.86.66-1.17.27-2.61-.9-3.27Zm4.32-12.77-4.59 2.65 4.59 2.61c1.17.66 1.56 2.14.9 3.27s-2.14 1.52-3.31.86l-8.21-4.71a2.38 2.38 0 0 1-1.09-1.36 2.6 2.6 0 0 1-.12-.78c0-.19.04-.39.08-.58.16-.58.54-1.09 1.13-1.44l8.21-4.71c1.17-.66 2.65-.27 3.31.9.66 1.21.27 2.65-.9 3.31Zm133.25-4.67c0 1.32-.9 2.41-2.37 2.41s-2.37-1.13-2.37-2.41.9-2.41 2.37-2.41c1.48 0 2.37 1.09 2.37 2.41m-.46 0c0-1.13-.74-1.99-1.91-1.99s-1.87.82-1.87 1.99.74 1.99 1.87 1.99c1.17-.04 1.91-.86 1.91-1.99m-2.84-1.09h1.01c.55 0 .93.31.93.78 0 .27-.16.51-.35.66l.39.58v.12h-.58l-.39-.54h-.47v.54h-.54zm1.01.51h-.47v.54h.47c.19 0 .35-.08.35-.27s-.12-.27-.35-.27" fill="#2ab4e7" fill-rule="evenodd" data-name="Logo-/-Snowflake-Blue"/></g></svg>