<svg width="512" height="512" viewBox="0 0 512 512" fill="none" xmlns="http://www.w3.org/2000/svg">
<mask id="mask0_108_932" style="mask-type:alpha" maskUnits="userSpaceOnUse" x="0" y="0" width="512" height="512">
<rect width="512" height="512" fill="#D9D9D9"/>
</mask>
<g mask="url(#mask0_108_932)">
<path fill-rule="evenodd" clip-rule="evenodd" d="M313.415 214.73H245.906V236.746H268.469V283.848H290.478V236.746H313.415V214.73ZM379.38 283.667L358.104 214.73H331.314L310.041 283.667H332.054L344.709 234.651L357.37 283.667H379.38ZM446.775 214.73H379.269V236.746H401.832V283.848H423.839V236.746H446.775V214.73ZM512 283.667L490.719 214.73H463.937L442.656 283.667H464.677L477.332 234.651L489.984 283.667H512ZM81.7694 288.652C86.5647 268.282 90.1218 248.399 90.1218 248.399C90.1218 248.399 91.9105 241.841 88.333 237.369C84.7555 232.898 73.7259 234.389 73.7259 234.389C73.7259 234.389 56.593 234.593 39.1309 236.696C23.5799 238.573 7.7114 241.658 1.86157 242.843C0.638593 247.023 0.0118815 251.354 0 255.708C0 286.4 30.6708 312.438 73.2511 321.74C75.4855 313.618 78.8445 301.059 81.7694 288.652Z" fill="#2D509F"/>
<path fill-rule="evenodd" clip-rule="evenodd" d="M113.42 275.828C113.216 251.143 113.907 228.123 113.907 228.123C113.907 228.123 113.114 224.656 115.325 222.961C117.589 221.227 122.85 221.268 122.85 221.268C122.85 221.268 143.261 221.842 166.133 224.776C182.831 226.923 200.888 230.366 209.042 231.995C194.05 205.169 154.349 186 107.722 186C60.9115 186 21.0959 205.324 6.23828 232.306C13.3874 230.867 32.8218 227.077 50.718 224.778C73.59 221.845 93.9945 221.271 93.9945 221.271C93.9945 221.271 99.2617 221.23 101.522 222.963C103.734 224.659 102.941 228.126 102.941 228.126C102.941 228.126 103.634 251.146 103.428 275.83C103.264 294.749 102.682 314.591 102.326 325.315C104.112 325.373 105.907 325.405 107.719 325.405C110.003 325.405 112.266 325.344 114.515 325.251C114.163 314.507 113.583 294.708 113.42 275.828Z" fill="#2D509F"/>
<path fill-rule="evenodd" clip-rule="evenodd" d="M177.721 236.694C160.259 234.59 143.123 234.386 143.123 234.386C143.123 234.386 132.096 232.898 128.513 237.367C124.939 241.839 126.73 248.396 126.73 248.396C126.73 248.396 130.284 268.279 135.08 288.649C137.967 300.911 141.282 313.315 143.516 321.446C185.409 311.9 215.442 286.071 215.442 255.706C215.442 251.202 214.757 246.809 213.499 242.544C206.746 241.195 192.095 238.427 177.721 236.694Z" fill="#2D509F"/>
</g>
</svg>
