<svg width="512" height="512" viewBox="0 0 512 512" fill="none" xmlns="http://www.w3.org/2000/svg">
<path d="M426.667 296.32C424.124 293.268 420.562 291.24 416.64 290.613C412.718 289.985 408.701 290.8 405.333 292.907L256 402.56V407.253C258.155 406.998 260.339 407.202 262.409 407.852C264.479 408.502 266.387 409.583 268.009 411.024C269.631 412.465 270.929 414.234 271.818 416.213C272.707 418.192 273.167 420.337 273.167 422.507C273.167 424.676 272.707 426.821 271.818 428.8C270.929 430.779 269.631 432.548 268.009 433.989C266.387 435.43 264.479 436.511 262.409 437.161C260.339 437.811 258.155 438.015 256 437.76C259.464 437.775 262.838 436.651 265.6 434.56L423.68 317.867C426.76 315.284 428.771 311.65 429.323 307.668C429.875 303.687 428.928 299.643 426.667 296.32Z" fill="#669DF6"/>
<path d="M256 437.761C252.266 437.319 248.823 435.521 246.325 432.71C243.827 429.899 242.447 426.269 242.447 422.508C242.447 418.747 243.827 415.117 246.325 412.306C248.823 409.494 252.266 407.697 256 407.255V402.561L106.667 292.908C103.313 290.756 99.284 289.914 95.3489 290.544C91.4139 291.173 87.8486 293.23 85.3336 296.321C83.0844 299.645 82.1854 303.7 82.8194 307.663C83.4535 311.626 85.573 315.199 88.747 317.655L246.827 434.348C249.524 436.409 252.82 437.533 256.214 437.548L256 437.761Z" fill="#AECBFA"/>
<path d="M256.001 391.254C249.798 391.254 243.735 393.093 238.578 396.539C233.421 399.985 229.401 404.883 227.028 410.613C224.654 416.343 224.033 422.649 225.243 428.732C226.453 434.815 229.44 440.403 233.826 444.789C238.212 449.175 243.799 452.161 249.883 453.371C255.966 454.581 262.271 453.96 268.002 451.587C273.732 449.213 278.63 445.194 282.076 440.037C285.521 434.879 287.361 428.816 287.361 422.614C287.361 414.297 284.057 406.32 278.176 400.439C272.294 394.558 264.318 391.254 256.001 391.254ZM256.001 437.761C252.954 437.76 249.976 436.854 247.445 435.156C244.915 433.459 242.947 431.047 241.791 428.228C240.635 425.409 240.343 422.31 240.953 419.325C241.563 416.339 243.048 413.603 245.217 411.464C247.387 409.324 250.144 407.878 253.137 407.31C256.13 406.742 259.225 407.077 262.028 408.272C264.831 409.467 267.215 411.469 268.876 414.023C270.538 416.577 271.403 419.567 271.361 422.614C271.361 424.621 270.962 426.608 270.188 428.46C269.413 430.312 268.278 431.991 266.849 433.4C265.42 434.81 263.725 435.921 261.863 436.669C260 437.418 258.008 437.789 256.001 437.761Z" fill="#4285F4"/>
<path d="M127.999 130.349C123.773 130.293 119.735 128.59 116.747 125.601C113.758 122.613 112.054 118.575 111.999 114.349V74.2419C111.737 71.9711 111.959 69.6706 112.649 67.4914C113.339 65.3122 114.482 63.3034 116.003 61.5971C117.524 59.8907 119.388 58.5252 121.474 57.5902C123.56 56.6552 125.82 56.1719 128.106 56.1719C130.392 56.1719 132.652 56.6552 134.738 57.5902C136.824 58.5252 138.688 59.8907 140.209 61.5971C141.73 63.3034 142.873 65.3122 143.563 67.4914C144.253 69.6706 144.474 71.9711 144.213 74.2419V114.349C144.156 118.612 142.424 122.681 139.389 125.676C136.355 128.67 132.263 130.349 127.999 130.349Z" fill="#AECBFA"/>
<path d="M127.573 272.212C136.527 272.212 143.786 264.953 143.786 255.998C143.786 247.044 136.527 239.785 127.573 239.785C118.618 239.785 111.359 247.044 111.359 255.998C111.359 264.953 118.618 272.212 127.573 272.212Z" fill="#AECBFA"/>
<path d="M127.573 225.067C136.527 225.067 143.786 217.808 143.786 208.854C143.786 199.9 136.527 192.641 127.573 192.641C118.618 192.641 111.359 199.9 111.359 208.854C111.359 217.808 118.618 225.067 127.573 225.067Z" fill="#AECBFA"/>
<path d="M127.573 177.708C136.527 177.708 143.786 170.449 143.786 161.495C143.786 152.54 136.527 145.281 127.573 145.281C118.618 145.281 111.359 152.54 111.359 161.495C111.359 170.449 118.618 177.708 127.573 177.708Z" fill="#AECBFA"/>
<path d="M384 177.281C379.737 177.225 375.668 175.492 372.673 172.457C369.678 169.423 368 165.331 368 161.068V120.961C368 116.717 369.686 112.648 372.686 109.647C375.687 106.647 379.757 104.961 384 104.961C388.243 104.961 392.313 106.647 395.314 109.647C398.314 112.648 400 116.717 400 120.961V161.068C400.028 163.187 399.635 165.29 398.844 167.256C398.052 169.222 396.878 171.011 395.39 172.519C393.901 174.028 392.128 175.226 390.173 176.043C388.217 176.86 386.119 177.281 384 177.281Z" fill="#4285F4"/>
<path d="M384.426 272.427C393.381 272.427 400.64 265.168 400.64 256.213C400.64 247.259 393.381 240 384.426 240C375.472 240 368.213 247.259 368.213 256.213C368.213 265.168 375.472 272.427 384.426 272.427Z" fill="#4285F4"/>
<path d="M384.426 224.427C393.381 224.427 400.64 217.168 400.64 208.213C400.64 199.259 393.381 192 384.426 192C375.472 192 368.213 199.259 368.213 208.213C368.213 217.168 375.472 224.427 384.426 224.427Z" fill="#4285F4"/>
<path d="M384.426 90.454C393.381 90.454 400.64 83.1951 400.64 74.2407C400.64 65.2863 393.381 58.0273 384.426 58.0273C375.472 58.0273 368.213 65.2863 368.213 74.2407C368.213 83.1951 375.472 90.454 384.426 90.454Z" fill="#4285F4"/>
<path d="M256 320.002C251.774 319.946 247.736 318.243 244.747 315.254C241.759 312.266 240.055 308.228 240 304.002V263.255C240.456 259.303 242.349 255.656 245.319 253.009C248.288 250.361 252.128 248.898 256.107 248.898C260.085 248.898 263.925 250.361 266.895 253.009C269.865 255.656 271.758 259.303 272.213 263.255V303.575C272.242 305.722 271.843 307.853 271.041 309.845C270.239 311.837 269.049 313.65 267.541 315.178C266.032 316.706 264.235 317.919 262.254 318.747C260.273 319.576 258.147 320.002 256 320.002Z" fill="#669DF6"/>
<path d="M256 367.145C264.955 367.145 272.214 359.886 272.214 350.932C272.214 341.978 264.955 334.719 256 334.719C247.046 334.719 239.787 341.978 239.787 350.932C239.787 359.886 247.046 367.145 256 367.145Z" fill="#669DF6"/>
<path d="M256 232.532C264.955 232.532 272.214 225.273 272.214 216.319C272.214 207.364 264.955 200.105 256 200.105C247.046 200.105 239.787 207.364 239.787 216.319C239.787 225.273 247.046 232.532 256 232.532Z" fill="#669DF6"/>
<path d="M256 185.173C264.955 185.173 272.214 177.914 272.214 168.959C272.214 160.005 264.955 152.746 256 152.746C247.046 152.746 239.787 160.005 239.787 168.959C239.787 177.914 247.046 185.173 256 185.173Z" fill="#669DF6"/>
<path d="M319.999 224.853C315.773 224.797 311.735 223.094 308.747 220.105C305.758 217.116 304.054 213.079 303.999 208.853V168.746C303.737 166.475 303.959 164.175 304.649 161.995C305.339 159.816 306.482 157.807 308.003 156.101C309.524 154.395 311.388 153.029 313.474 152.094C315.56 151.159 317.82 150.676 320.106 150.676C322.392 150.676 324.652 151.159 326.738 152.094C328.824 153.029 330.688 154.395 332.209 156.101C333.73 157.807 334.873 159.816 335.563 161.995C336.253 164.175 336.474 166.475 336.213 168.746V208.853C336.156 213.115 334.424 217.185 331.389 220.179C328.355 223.174 324.263 224.853 319.999 224.853Z" fill="#4285F4"/>
<path d="M320.213 137.599C329.168 137.599 336.427 130.34 336.427 121.385C336.427 112.431 329.168 105.172 320.213 105.172C311.259 105.172 304 112.431 304 121.385C304 130.34 311.259 137.599 320.213 137.599Z" fill="#4285F4"/>
<path d="M320.213 318.934C329.168 318.934 336.427 311.676 336.427 302.721C336.427 293.767 329.168 286.508 320.213 286.508C311.259 286.508 304 293.767 304 302.721C304 311.676 311.259 318.934 320.213 318.934Z" fill="#4285F4"/>
<path d="M320.213 271.575C329.168 271.575 336.427 264.316 336.427 255.362C336.427 246.407 329.168 239.148 320.213 239.148C311.259 239.148 304 246.407 304 255.362C304 264.316 311.259 271.575 320.213 271.575Z" fill="#4285F4"/>
<path d="M191.788 318.934C200.742 318.934 208.001 311.676 208.001 302.721C208.001 293.767 200.742 286.508 191.788 286.508C182.833 286.508 175.574 293.767 175.574 302.721C175.574 311.676 182.833 318.934 191.788 318.934Z" fill="#AECBFA"/>
<path d="M191.788 185.173C200.742 185.173 208.001 177.914 208.001 168.959C208.001 160.005 200.742 152.746 191.788 152.746C182.833 152.746 175.574 160.005 175.574 168.959C175.574 177.914 182.833 185.173 191.788 185.173Z" fill="#AECBFA"/>
<path d="M191.788 137.599C200.742 137.599 208.001 130.34 208.001 121.385C208.001 112.431 200.742 105.172 191.788 105.172C182.833 105.172 175.574 112.431 175.574 121.385C175.574 130.34 182.833 137.599 191.788 137.599Z" fill="#AECBFA"/>
<path d="M192 271.571C187.809 271.575 183.779 269.955 180.756 267.051C177.734 264.148 175.953 260.186 175.787 255.998V215.465C175.787 211.221 177.473 207.152 180.473 204.151C183.474 201.151 187.544 199.465 191.787 199.465C196.031 199.465 200.1 201.151 203.101 204.151C206.101 207.152 207.787 211.221 207.787 215.465V255.998C207.677 260.131 205.972 264.06 203.029 266.963C200.086 269.866 196.134 271.518 192 271.571Z" fill="#AECBFA"/>
</svg>
